<svg xmlns="http://www.w3.org/2000/svg" version="1.1" xmlns:xlink="http://www.w3.org/1999/xlink" xmlns:svgjs="http://svgjs.dev/svgjs" width="1000" height="1125" viewBox="0 0 1000 1125"><g transform="matrix(1,0,0,1,1.7053025658242404e-13,0)"><svg viewBox="0 0 320 360" data-background-color="#1b4571" preserveAspectRatio="xMidYMid meet" height="1125" width="1000" xmlns="http://www.w3.org/2000/svg" xmlns:xlink="http://www.w3.org/1999/xlink"><defs></defs><g id="tight-bounds" transform="matrix(1,0,0,1,0,0)"><svg viewBox="0 0 320 360" height="360" width="320"><g><svg></svg></g><g><svg viewBox="0 0 320 360" height="360" width="320"><g><path d="M20.961 227.22l3.726 4.658-1.863-6.056c-0.466-2.795-3.726 0.466-1.863 1.398M25.153 224.425c1.397 2.329 2.795 4.658 2.795 6.987 0 3.261 2.795 4.658 5.123 5.589-3.261-3.726-5.124-13.974-7.918-12.576M204.017 26.929c7.918 0 15.371-0.932 23.756 0.931 20.495 5.124 37.729 15.371 49.374 29.811l32.606 52.169c1.397 13.042 4.192 27.482 3.726 43.319 3.261 0 2.795-4.658 6.521-5.59-3.726 9.316-5.59 20.961-6.521 34.469-2.329-7.453 0-18.632 0.466-24.687-3.261 5.124-5.124 1.397-5.124-0.932 0.466-3.726-1.397-3.261-2.795-4.658-5.124-4.658-8.384-9.782-12.11-17.7 2.329-6.055 2.795-14.905-4.658-19.563-2.329-1.397-5.124-3.726-6.521-7.453-1.863-5.124-5.124-11.179-4.193-19.097 0.466-2.329-6.987 5.124-11.179 1.863-18.166-12.576-36.332-27.016-58.224-39.127-11.645 0-20.029-4.192-24.221-9.316-3.726-4.658-0.932-10.713 4.658-11.179 3.261 0 6.987-0.932 9.782 0.932 0.466-1.863 2.329-4.192 4.657-4.192M157.904 16.215l0.932 0.466c4.658 0.932 6.987 7.453 12.11 5.124 0 3.261 0.466 6.521-0.466 8.85-1.397 3.726-5.59 3.726-8.85 3.726-31.208-1.863-49.374 11.179-68.471 22.358-5.124 3.261-10.713 5.59-14.906 9.782-20.029 18.632-41.921 35.866-47.045 70.335l-4.192 38.195c-0.466 4.192-5.124 8.384-4.192 13.508l3.26 22.824c-3.261-3.261-5.124 0.932-4.192 2.795 0.466 1.397 2.329 6.055 5.124 1.863 3.726 6.987 7.453 20.495 12.576 26.55 15.837 18.632 36.332 35.4 53.101 52.169 4.192-0.932 7.453-0.932 8.384-3.727 1.397 2.795-1.397 5.59-3.726 6.056 7.453 4.658 15.837 8.85 27.016 9.781 14.44 0.932 27.948 3.261 40.524 6.522 6.521-1.863 13.042-2.795 20.029-3.261 2.329 0 3.726-3.726 6.521-4.658l0.466-4.658c2.795 4.192 2.329-1.397 0.466-4.192 3.261 2.795 4.192 5.124 5.589 6.987 0-1.397 3.726-6.521 3.727-0.466l0.931-6.055c1.397-0.932 1.863 5.124 3.261 0.931 1.397-4.192 4.192-0.932 6.987-2.329-0.932 1.863-0.466 5.59 2.794 3.261l3.727-3.261c2.329 5.59 6.055 3.261 7.918 2.329 20.495-13.042 40.99-28.413 60.553-43.784l-0.466 6.055 2.329-7.453c2.329 2.329 4.192 0.466 5.124-0.931 2.795-4.658 6.521-9.316 12.577-13.508-7.453 20.029-16.303 35.866-27.482 48.908l-4.658 5.59c0 3.261-0.932 7.453-4.658 7.918-1.863 0.466-5.59-0.932-8.384 1.863-1.397 1.863 3.261 5.59-0.466 2.795-3.261-2.329-6.521 0-10.248 0.932-2.795 0.932 1.863 3.726 2.795 5.589 0.932 1.863 1.863 3.726 1.398 6.056l-5.124-5.59c-6.055 3.261-9.782 9.316-14.906 13.974-2.329 1.863-1.397 5.124-1.397 7.918-3.261 0-6.987-0.932-8.85 0.932-1.397 1.863-0.932 4.658-0.932 7.453-4.658-0.466-5.124-7.453-9.315-6.056-4.192 0.932-8.85 1.397-12.577 3.727 2.795 5.59-4.658 2.329-3.726 3.26-6.987-4.192-13.042-7.453-20.495-4.658-15.837-5.124-35.4-2.795-49.84-0.931 0-2.329 0.466-4.658-0.466-5.124-0.932 2.329-3.726 1.397-3.26 1.397-8.85-6.055-17.7-9.782-27.016-14.905-8.384 0.932-16.303-3.261-18.632-5.59-6.521-6.055-13.974-2.795-20.029-4.192-13.042-3.261-17.7-16.769-19.098-26.084-0.932-4.658-4.658-6.521-6.055-6.056-6.055-19.563-15.371-37.263-22.824-55.429-1.863-4.658-1.397-9.316-1.397-14.44 2.329 0.932 4.658 0.466 4.192-2.794-2.329-15.371-7.918-27.016-13.974-38.195 3.261-15.837 3.726-34.469 11.179-48.443 6.521-12.576 18.632-19.098 27.016-29.811 2.795-3.726 2.795-8.85 5.59-12.11 9.316-9.316 18.632-19.098 28.879-27.482 4.658-3.726 10.247 0 17.234-1.397 2.329-8.384 11.645-15.837 20.495-13.508 3.726 0.932 11.179-8.85 13.508-9.782 3.726-1.397 1.863 3.726 1.863 6.987 8.85-6.987 20.961-10.713 32.14-14.906" fill="#000000" data-fill-palette-color="tertiary"></path></g><g transform="matrix(1,0,0,1,69.75843983972553,90)"><svg viewBox="0 0 180.48312032054895 180" height="180" width="180.48312032054895"><g><svg viewBox="0 0 180.48312032054895 180" height="180" width="180.48312032054895"><g><svg viewBox="0 0 192 191.48605109784972" height="180" width="180.48312032054895"><g transform="matrix(1,0,0,1,0,99.31385697081872)"><svg viewBox="0 0 192 92.17219412703102" height="92.17219412703102" width="192"><g><svg viewBox="0 0 192 92.17219412703102" height="92.17219412703102" width="192"><g><svg viewBox="0 0 192 52.254062038404726" height="52.254062038404726" width="192"><g transform="matrix(1,0,0,1,0,0)"><svg width="192" viewBox="2.299999952316284 -36.54999923706055 135.38999938964844 36.849998474121094" height="52.254062038404726" data-palette-color="#ffffff"><path d="M14.55 0.3L14.55 0.3Q11.1 0.3 8.33-0.85 5.55-2 3.93-4.6 2.3-7.2 2.3-11.5L2.3-11.5 2.3-24.75Q2.3-29.05 3.93-31.65 5.55-34.25 8.3-35.4 11.05-36.55 14.3-36.55L14.3-36.55Q17.9-36.55 20.73-35.38 23.55-34.2 25.2-32 26.85-29.8 26.85-26.6L26.85-26.6Q26.85-24.35 25.9-23.63 24.95-22.9 22.95-22.9L22.95-22.9Q21.4-22.9 20.25-23.4 19.1-23.9 19.05-25.25L19.05-25.25Q19.05-26.15 18.82-27.2 18.6-28.25 17.68-29 16.75-29.75 14.6-29.75L14.6-29.75Q12.45-29.75 11.28-28.53 10.1-27.3 10.1-24.75L10.1-24.75 10.1-11.5Q10.1-8.95 11.28-7.73 12.45-6.5 14.55-6.5L14.55-6.5Q16.65-6.5 17.85-7.73 19.05-8.95 19.05-11.5L19.05-11.5 19.05-13.2 16.1-13.2Q15-13.2 14.38-14.13 13.75-15.05 13.75-16.2L13.75-16.2Q13.75-17.3 14.38-18.25 15-19.2 16.1-19.2L16.1-19.2 24.5-19.2Q25.65-19.2 26.25-18.48 26.85-17.75 26.85-16.75L26.85-16.75 26.85-11.5Q26.85-7.2 25.23-4.6 23.6-2 20.8-0.85 18 0.3 14.55 0.3ZM42.95 0.3L42.95 0.3Q39.7 0.3 36.95-0.85 34.2-2 32.57-4.6 30.95-7.2 30.95-11.5L30.95-11.5 30.95-24.75Q30.95-29.05 32.57-31.65 34.2-34.25 36.95-35.4 39.7-36.55 42.95-36.55L42.95-36.55Q46.55-36.55 49.37-35.38 52.2-34.2 53.85-32 55.5-29.8 55.5-26.6L55.5-26.6Q55.5-24.35 54.55-23.63 53.6-22.9 51.6-22.9L51.6-22.9Q50.05-22.9 48.92-23.4 47.8-23.9 47.7-25.25L47.7-25.25Q47.7-25.75 47.57-26.5 47.45-27.25 47.05-28 46.65-28.75 45.75-29.25 44.85-29.75 43.25-29.75L43.25-29.75Q41.1-29.75 39.92-28.53 38.75-27.3 38.75-24.75L38.75-24.75 38.75-11.5Q38.75-8.95 39.95-7.73 41.15-6.5 43.3-6.5L43.3-6.5Q44.8-6.5 45.67-7 46.55-7.5 46.95-8.28 47.35-9.05 47.5-9.9 47.65-10.75 47.7-11.5L47.7-11.5Q47.8-12.9 48.92-13.38 50.05-13.85 51.55-13.85L51.55-13.85Q53.6-13.85 54.55-13.13 55.5-12.4 55.5-10.15L55.5-10.15Q55.5-6.85 53.85-4.5 52.2-2.15 49.37-0.93 46.55 0.3 42.95 0.3ZM71.3 0.3L71.3 0.3Q67.84 0.3 65.07-0.85 62.3-2 60.67-4.6 59.05-7.2 59.05-11.5L59.05-11.5 59.05-24.75Q59.05-29.05 60.67-31.65 62.3-34.25 65.07-35.4 67.84-36.55 71.3-36.55L71.3-36.55Q74.75-36.55 77.55-35.4 80.34-34.25 81.97-31.65 83.59-29.05 83.59-24.75L83.59-24.75 83.59-11.5Q83.59-7.2 81.97-4.6 80.34-2 77.55-0.85 74.75 0.3 71.3 0.3ZM71.3-6.5L71.3-6.5Q73.4-6.5 74.59-7.7 75.8-8.9 75.8-11.5L75.8-11.5 75.8-24.75Q75.8-27.35 74.59-28.55 73.4-29.75 71.3-29.75L71.3-29.75Q69.2-29.75 68.02-28.55 66.84-27.35 66.84-24.75L66.84-24.75 66.84-11.5Q66.84-8.9 68.02-7.7 69.2-6.5 71.3-6.5ZM109.79 0L91.99 0Q90.74 0 89.67-0.6 88.59-1.2 88.59-2.4L88.59-2.4 88.59-34.15Q88.59-35.35 89.67-35.95 90.74-36.55 91.99-36.55L91.99-36.55 109.79-36.55Q111.04-36.55 111.59-35.48 112.14-34.4 112.14-33.2L112.14-33.2Q112.14-31.8 111.54-30.78 110.94-29.75 109.79-29.75L109.79-29.75 96.39-29.75 96.39-21.3 103.89-21.3Q105.04-21.3 105.64-20.38 106.24-19.45 106.24-18.25L106.24-18.25Q106.24-17.25 105.69-16.28 105.14-15.3 103.89-15.3L103.89-15.3 96.39-15.3 96.39-6.8 109.79-6.8Q110.94-6.8 111.54-5.78 112.14-4.75 112.14-3.35L112.14-3.35Q112.14-2.15 111.59-1.07 111.04 0 109.79 0L109.79 0ZM125.69 0.3L125.69 0.3Q122.14 0.3 119.29-0.93 116.44-2.15 114.79-4.5 113.14-6.85 113.14-10.15L113.14-10.15Q113.14-12.4 114.12-13.13 115.09-13.85 117.09-13.85L117.09-13.85Q118.59-13.85 119.72-13.38 120.84-12.9 120.94-11.5L120.94-11.5Q121.04-10.55 121.29-9.38 121.54-8.2 122.44-7.35 123.34-6.5 125.34-6.5L125.34-6.5Q127.54-6.5 128.72-7.73 129.89-8.95 129.89-11.5L129.89-11.5 129.89-29.75 125.54-29.75Q124.44-29.75 123.82-30.78 123.19-31.8 123.19-33.2L123.19-33.2Q123.19-34.4 123.74-35.48 124.29-36.55 125.54-36.55L125.54-36.55 134.29-36.55Q135.59-36.55 136.64-35.95 137.69-35.35 137.69-34.15L137.69-34.15 137.69-11.5Q137.69-7.2 136.07-4.6 134.44-2 131.72-0.85 128.99 0.3 125.69 0.3Z" opacity="1" transform="matrix(1,0,0,1,0,0)" fill="#000000" class="undefined-text-0" data-fill-palette-color="primary" id="text-0"></path></svg></g></svg></g><g transform="matrix(1,0,0,1,0,59.879183787296896)"><svg viewBox="0 0 192 32.29301033973412" height="32.29301033973412" width="192"><g transform="matrix(1,0,0,1,0,0)"><svg width="192" viewBox="2 -28.90999984741211 235.72999572753906 39.650001525878906" height="32.29301033973412" data-palette-color="#ffffff"><path d="M26.27-7.13L24.22 0.29Q22.85 0.1 21.48 0.05 20.12 0 18.95 0L18.95 0 2.15 0 2-2.05 5.03-2.73Q5.13-2.98 5.2-3.91 5.27-4.83 5.3-6.4 5.32-7.96 5.32-10.06L5.32-10.06 5.32-18.55Q5.32-20.7 5.3-22.29 5.27-23.88 5.2-24.8 5.13-25.73 5.03-25.93L5.03-25.93 2-26.61 2.15-28.66 17.68-28.66Q18.41-28.66 19.38-28.69 20.36-28.71 21.39-28.76 22.41-28.81 23.34-28.91L23.34-28.91 24.41-22.17 22.02-21.83 20.31-25.98Q19.82-26.07 19.36-26.12 18.9-26.17 18.31-26.17L18.31-26.17 13.38-26.17Q12.45-26.17 11.69-26.15 10.94-26.12 10.3-26.03L10.3-26.03Q10.3-25.73 10.28-24.88 10.25-24.02 10.23-22.83 10.21-21.63 10.21-20.31L10.21-20.31 10.21-8.11Q10.21-6.93 10.23-5.86 10.25-4.79 10.28-4 10.3-3.22 10.3-2.88L10.3-2.88Q11.08-2.78 11.89-2.73 12.7-2.69 13.82-2.69L13.82-2.69 17.87-2.69Q18.99-2.69 19.65-2.71 20.31-2.73 20.68-2.78 21.04-2.83 21.34-2.88L21.34-2.88 23.93-7.57 26.27-7.13ZM20.8-9.91L18.55-9.91 18.02-13.23Q17.72-13.28 17.09-13.33 16.46-13.38 15.58-13.38L15.58-13.38 12.26-13.38Q11.52-13.38 10.77-13.35 10.01-13.33 9.38-13.28L9.38-13.28 9.38-16.16Q10.01-16.11 10.77-16.11 11.52-16.11 12.26-16.11L12.26-16.11 15.58-16.11Q16.46-16.11 17.09-16.14 17.72-16.16 18.02-16.16L18.02-16.16 18.55-19.53 20.8-19.53 20.8-9.91ZM52.92-1.9L52.77 0 42.91 0 42.81-1.9 45.1-2.69 40.47-8.84 39.1-10.55 32.99-18.46 30.7-19.19 30.85-21.14 40.51-21.14 40.61-19.19 38.56-18.46 42.42-13.38 43.79-11.57 50.62-2.69 52.92-1.9ZM42.42-13.38L46.28-18.46 44.22-19.19 44.37-21.14 51.65-21.14 51.79-19.19 49.5-18.46 43.79-11.57 40.47-8.84 36.07-2.69 38.37-1.9 38.22 0 30.65 0 30.5-1.9 32.8-2.69 39.1-10.55 42.42-13.38ZM65.26 0.39L65.26 0.39Q63.21 0.39 61.64-0.46 60.08-1.32 59.25-2.59 58.42-3.86 58.42-5.13L58.42-5.13Q58.42-6.79 59.47-7.89 60.52-8.98 62.96-9.77L62.96-9.77 70.48-12.21 70.48-14.45Q70.48-15.58 69.77-16.55 69.06-17.53 67.89-18.12 66.72-18.7 65.26-18.7L65.26-18.7Q64.23-18.7 63.82-18.24 63.4-17.77 63.3-16.41L63.3-16.41 63.16-14.06Q61.2-13.62 59.86-14.18 58.52-14.75 58.52-16.06L58.52-16.06Q58.52-16.89 59.32-17.77 60.13-18.65 61.37-19.46 62.62-20.26 64.04-20.8 65.45-21.34 66.72-21.53L66.72-21.53Q70.53-21.53 72.85-19.6 75.17-17.68 75.22-14.5L75.22-14.5 75.07-6.79Q75.07-5.71 75.14-4.86 75.22-4 75.41-3.56L75.41-3.56 78.54-2.98 78.54-1.32 75.9-0.24Q75.17 0.05 74.53 0.22 73.9 0.39 73.41 0.39L73.41 0.39Q71.75 0.39 71.21-1.37L71.21-1.37 70.58-3.42 71.41-3.32Q69.85-1.51 68.31-0.56 66.77 0.39 65.26 0.39ZM66.97-2.98L66.97-2.98Q67.94-2.98 68.82-3.42 69.7-3.86 70.48-4.74L70.48-4.74 70.48-9.77 65.7-8.59Q64.52-8.3 64.01-7.69 63.5-7.08 63.5-6.1L63.5-6.1Q63.5-4.88 64.52-3.93 65.55-2.98 66.97-2.98ZM94.2 0L83.55 0 83.41-1.9 86.43-2.69Q86.48-2.93 86.53-3.52 86.58-4.1 86.61-5.15 86.63-6.2 86.63-7.76L86.63-7.76 86.68-11.52Q86.73-12.55 86.68-13.55 86.63-14.55 86.53-15.45 86.43-16.36 86.29-16.99L86.29-16.99 83.16-17.68 83.16-19.48 90.39-21.44 91.41-20.65 91.12-17.92 91.27-17.87Q92.83-19.82 94.47-20.68 96.1-21.53 97.86-21.53L97.86-21.53Q99.62-21.53 101.25-20.58 102.89-19.63 103.94-17.72 104.99-15.82 104.99-12.84L104.99-12.84 105.04-7.71Q105.04-6.01 105.11-4.59 105.18-3.17 105.28-2.69L105.28-2.69 108.16-1.9 108.02 0 97.76 0 97.66-1.9 100.25-2.69Q100.35-3.08 100.4-3.74 100.45-4.39 100.47-5.35 100.5-6.3 100.5-7.47L100.5-7.47 100.45-12.6Q100.45-14.55 99.84-15.75 99.23-16.94 98.23-17.48 97.23-18.02 96.05-18.02L96.05-18.02Q94.69-18.02 93.44-17.36 92.2-16.7 91.27-15.33L91.27-15.33 91.27-8.01Q91.27-6.01 91.34-4.57 91.41-3.13 91.51-2.69L91.51-2.69 94.34-1.9 94.2 0ZM121.88 0L111.43 0 111.29-1.9 113.97-2.69Q114.07-3.08 114.12-3.74 114.17-4.39 114.19-5.35 114.22-6.3 114.22-7.47L114.22-7.47 114.22-12.4Q114.22-14.45 113.53-15.67 112.85-16.89 111.8-17.46 110.75-18.02 109.63-18.02L109.63-18.02Q108.11-18.02 106.8-17.31 105.48-16.6 104.5-15.09L104.5-15.09 103.43-16.94Q105.14-19.29 107.06-20.41 108.99-21.53 111.24-21.53L111.24-21.53Q113.39-21.53 115.07-20.51 116.76-19.48 117.73-17.6 118.71-15.72 118.71-13.09L118.71-13.09 118.71-7.71Q118.71-6.01 118.78-4.59 118.86-3.17 119-2.69L119-2.69 122.03-1.9 121.88 0ZM151.25 10.74L139.43 10.74 139.29 8.84 142.32 8.06Q142.32 7.81 142.36 7.15 142.41 6.49 142.44 5.42 142.46 4.35 142.49 2.88 142.51 1.42 142.51-0.44L142.51-0.44 142.61-11.72Q142.61-13.18 142.51-14.6 142.41-16.02 142.22-16.99L142.22-16.99 139.09-17.68 139.09-19.48 146.32-21.44 147.34-20.65 147-17.87 147.15-17.82Q148.47-19.58 150.13-20.56 151.79-21.53 153.74-21.53L153.74-21.53Q156.33-21.53 158.38-20.24 160.43-18.95 161.65-16.63 162.87-14.31 162.87-11.23L162.87-11.23Q162.87-8.01 161.41-5.4 159.94-2.78 157.38-1.22 154.82 0.34 151.45 0.34L151.45 0.34Q150.42 0.34 149.27 0.15 148.13-0.05 147.2-0.44L147.2-0.44 147.2 3.03Q147.2 4.83 147.27 6.2 147.34 7.57 147.39 8.06L147.39 8.06 151.4 8.74 151.25 10.74ZM151.59-2.39L151.59-2.39Q153.45-2.39 154.82-3.27 156.18-4.15 156.96-5.88 157.75-7.62 157.79-10.11L157.79-10.11Q157.84-12.5 157.04-14.23 156.23-15.97 154.91-16.89 153.59-17.82 151.93-17.82L151.93-17.82Q150.52-17.82 149.32-17.19 148.13-16.55 147.2-15.33L147.2-15.33 147.2-3.76Q148.03-3.13 149.2-2.76 150.37-2.39 151.59-2.39ZM181.22 0L169.06 0 168.91-1.9 171.94-2.69Q171.99-2.88 172.04-3.52 172.09-4.15 172.14-5.22 172.18-6.3 172.18-7.76L172.18-7.76 172.18-11.52Q172.18-13.13 172.09-14.58 171.99-16.02 171.79-16.99L171.79-16.99 168.67-17.68 168.67-19.48 175.85-21.44 176.73-20.7 176.53-16.7 176.68-16.65Q178.14-19.43 179.61-20.41 181.07-21.39 182.49-21.39L182.49-21.39Q183.71-21.39 184.54-20.78 185.37-20.17 185.37-18.9L185.37-18.9Q185.37-17.63 184.47-16.94 183.56-16.26 182.29-16.26L182.29-16.26Q181.32-16.26 180.46-16.63 179.61-16.99 178.78-17.82L178.78-17.82 179.75-17.58Q178.97-16.99 178.17-16.02 177.36-15.04 176.73-13.67L176.73-13.67 176.77-9.33Q176.82-7.91 176.87-6.57 176.92-5.22 176.97-4.2 177.02-3.17 177.07-2.69L177.07-2.69 181.32-2 181.22 0ZM200.1 0.39L200.1 0.39Q197.17 0.39 194.83-0.93 192.48-2.25 191.12-4.64 189.75-7.03 189.75-10.21L189.75-10.21Q189.75-13.67 191.21-16.21 192.68-18.75 195.05-20.17 197.42-21.58 200.15-21.53L200.15-21.53Q204.15-21.48 206.35-18.92 208.55-16.36 208.55-11.96L208.55-11.96 208.55-10.99 193.8-10.99 193.8-13.28 204.84-13.28 204.2-12.45 204.2-13.72Q204.2-16.31 203.03-17.8 201.86-19.29 199.76-19.29L199.76-19.29Q198.44-19.29 197.27-18.51 196.1-17.72 195.36-16.16 194.63-14.6 194.63-12.26L194.63-12.26 194.63-11.52Q194.63-7.71 196.59-5.52 198.54-3.32 201.66-3.32L201.66-3.32Q203.32-3.32 204.69-3.96 206.06-4.59 207.33-6.15L207.33-6.15 208.65-4.93Q207.28-2.25 205.06-0.93 202.84 0.39 200.1 0.39ZM226.11 10.74L214.3 10.74 214.15 8.84 217.18 8.06Q217.18 7.81 217.23 7.15 217.28 6.49 217.3 5.42 217.32 4.35 217.35 2.88 217.37 1.42 217.37-0.44L217.37-0.44 217.47-11.72Q217.47-13.18 217.37-14.6 217.28-16.02 217.08-16.99L217.08-16.99 213.95-17.68 213.95-19.48 221.18-21.44 222.21-20.65 221.86-17.87 222.01-17.82Q223.33-19.58 224.99-20.56 226.65-21.53 228.6-21.53L228.6-21.53Q231.19-21.53 233.24-20.24 235.29-18.95 236.51-16.63 237.73-14.31 237.73-11.23L237.73-11.23Q237.73-8.01 236.27-5.4 234.8-2.78 232.24-1.22 229.68 0.34 226.31 0.34L226.31 0.34Q225.28 0.34 224.14 0.15 222.99-0.05 222.06-0.44L222.06-0.44 222.06 3.03Q222.06 4.83 222.13 6.2 222.21 7.57 222.26 8.06L222.26 8.06 226.26 8.74 226.11 10.74ZM226.45-2.39L226.45-2.39Q228.31-2.39 229.68-3.27 231.04-4.15 231.83-5.88 232.61-7.62 232.66-10.11L232.66-10.11Q232.7-12.5 231.9-14.23 231.09-15.97 229.78-16.89 228.46-17.82 226.8-17.82L226.8-17.82Q225.38-17.82 224.18-17.19 222.99-16.55 222.06-15.33L222.06-15.33 222.06-3.76Q222.89-3.13 224.06-2.76 225.23-2.39 226.45-2.39Z" opacity="1" transform="matrix(1,0,0,1,0,0)" fill="#000000" class="undefined-text-1" data-fill-palette-color="secondary" id="text-1"></path></svg></g></svg></g></svg></g></svg></g><g transform="matrix(1,0,0,1,36.67199999999999,0)"><svg viewBox="0 0 118.65600000000002 91.68873522192655" height="91.68873522192655" width="118.65600000000002"><g><svg xmlns="http://www.w3.org/2000/svg" xmlns:xlink="http://www.w3.org/1999/xlink" version="1.1" x="0" y="0" viewBox="0.9000078439712524 11.100000381469727 87.99999237060547 68" enable-background="new 0 0 90 90" xml:space="preserve" height="91.68873522192655" width="118.65600000000002" class="icon-icon-0" data-fill-palette-color="accent" id="icon-0"><path d="M72.1 67.7V59M61.4 23.6c0-2.6 0.7-4.1 1.4-4.8 1.8-2.7 7.7-3 9.4-3 0.2 0 0.3 0 0.3 0 5.9 0 8.5 1.8 9.4 2.6l0.1 0.1c0.1 0.1 0.2 0.2 0.2 0.2 0.6 0.8 1.4 2.2 1.4 4.8 0 6.1-4.9 11.1-11 11.1l0 0C66.4 34.8 61.4 29.8 61.4 23.6zM62.2 23.6c0 5.7 4.6 10.3 10.2 10.3h0c5.6 0 10.2-4.6 10.2-10.3 0-2.5-0.7-3.8-1.2-4.3 0 0-0.1-0.1-0.2-0.2l-0.1-0.1c-0.6-0.6-3-2.4-8.8-2.4 0 0-0.1 0-0.2 0-1.2 0-7.2 0.1-8.8 2.6l0 0C63 19.8 62.2 21.1 62.2 23.6zM67.2 41.4H77v11.9h-9.9V41.4zM68 52.5h8.3V42.2H68V52.5zM69.9 44.5h4.6v-0.8h-4.6V44.5zM69.9 46.4h4.6v-0.8h-4.6V46.4zM69.9 48.2h4.6v-0.8h-4.6V48.2zM73.5 50.5c0 0.7-0.6 1.3-1.3 1.3-0.7 0-1.3-0.6-1.3-1.3 0-0.7 0.6-1.3 1.3-1.3C72.9 49.1 73.5 49.7 73.5 50.5zM72.7 50.5c0-0.3-0.2-0.5-0.5-0.5s-0.5 0.2-0.5 0.5c0 0.3 0.2 0.5 0.5 0.5S72.7 50.8 72.7 50.5zM88.9 41.9V58h-1.2c-0.3 2.5-2.2 4.4-4.7 4.7v5.5h0v2.6H71.5v-2.1c-1 1.4-2.7 2.4-4.6 2.4-2.9 0-5.4-2.3-5.7-5.3h0V48.2l-2.7 2.5-8.2 3.1c-0.3 0.3-0.7 0.5-1.1 0.7l3.9 20.9c0 0 0 0 0.1 0 0.3-0.2 0.7-0.3 1-0.4 0.7-0.3 1.3-0.5 1.9-0.7 1.1-0.4 1.9-0.6 1.9-0.6s-0.6 0.5-1.6 1.1c-0.5 0.3-1.1 0.6-1.7 1-0.3 0.2-0.7 0.3-1 0.5-0.1 0-0.1 0.1-0.2 0.1 0.1 0 0.1 0.1 0.2 0.1 0.3 0.2 0.7 0.3 1 0.5 0.6 0.3 1.2 0.7 1.7 1 1 0.6 1.6 1.1 1.6 1.1s-0.8-0.2-1.9-0.6c-0.6-0.2-1.2-0.4-1.9-0.7-0.3-0.1-0.7-0.3-1-0.4-0.3-0.1-0.5-0.2-0.8-0.3 0 0-0.1 0-0.1 0 0 0-0.1 0-0.1 0-0.3 0.1-0.5 0.2-0.8 0.3-0.3 0.2-0.7 0.3-1 0.4-0.7 0.3-1.3 0.5-1.9 0.7-1.1 0.4-1.9 0.6-1.9 0.6s0.6-0.5 1.6-1.1c0.5-0.3 1.1-0.6 1.7-1 0.3-0.2 0.7-0.3 1-0.5 0.1 0 0.1-0.1 0.2-0.1-0.1 0-0.1-0.1-0.2-0.1-0.3-0.2-0.7-0.3-1-0.5-0.6-0.3-1.2-0.7-1.7-1-1-0.6-1.6-1.1-1.6-1.1s0.8 0.2 1.9 0.6c0.6 0.2 1.2 0.4 1.9 0.7 0.3 0.1 0.6 0.2 0.9 0.4l-3.9-20.5c-0.3 0-0.7 0-0.7 0-0.5 0-1-0.2-1.3-0.6-0.3-0.4-0.5-0.9-0.5-1.4l0.2-4.1c0-0.7 0.4-1.3 0.9-1.6l-1.3-6.6c-1.3 0.9-2.6 1.7-4 2.4-1.6 0.8-3.2 1.5-4.8 2-0.8 0.3-1.7 0.5-2.6 0.7-0.9 0.2-1.7 0.3-2.6 0.3-0.9 0.1-1.8 0-2.7-0.1-0.9-0.1-1.8-0.3-2.6-0.6-0.8-0.3-1.7-0.5-2.5-0.8-0.8-0.2-1.7-0.5-2.5-0.7-0.8-0.2-1.7-0.4-2.5-0.6-0.4-0.1-0.8-0.1-1.3-0.2-0.4-0.1-0.8-0.1-1.3-0.2-0.4-0.1-0.8-0.1-1.3-0.1-0.4 0-0.8-0.1-1.3 0-0.4 0-0.8 0-1.3 0-0.2 0-0.4 0-0.6 0.1l-0.6 0.1c-0.2 0-0.4 0.1-0.6 0.1-0.2 0.1-0.4 0.1-0.6 0.2-0.4 0.1-0.8 0.3-1.1 0.4-0.7 0.3-1.4 0.8-2 1.3l-0.9 0.8-0.2-1.1-1-6.2-1-6.2-1-6.2-0.5-3.1c-0.2-1-0.3-2.1-0.4-3.1l0-0.3 0.2-0.2 0.6-0.4c0.2-0.1 0.4-0.3 0.6-0.4 0.2-0.1 0.4-0.2 0.6-0.3 0.2-0.1 0.4-0.2 0.6-0.3 0.4-0.2 0.9-0.3 1.3-0.4 0.2-0.1 0.4-0.1 0.7-0.1L6 17.1l0.3 0L7.1 17l0.7 0c0.5 0 0.9 0 1.3 0 0.4 0 0.9 0.1 1.3 0.1 0.4 0 0.9 0.1 1.3 0.2l0.7 0.1 0.7 0.1c0.4 0.1 0.9 0.2 1.3 0.3l1.3 0.3 1.3 0.4c0.9 0.2 1.7 0.5 2.5 0.8 0.4 0.1 0.8 0.3 1.3 0.4l1.2 0.4c0.4 0.1 0.8 0.3 1.2 0.3 0.4 0.1 0.8 0.2 1.3 0.2 0.4 0 0.9 0.1 1.3 0.1 0.4 0 0.9 0 1.3 0 0.4 0 0.9-0.1 1.3-0.1 0.4-0.1 0.8-0.1 1.3-0.2 0.4-0.1 0.8-0.2 1.2-0.3 0.4-0.1 0.8-0.3 1.2-0.4 1.6-0.6 3.2-1.3 4.7-2.1 0.7-0.4 1.5-0.9 2.2-1.3 0.4-0.2 0.7-0.5 1-0.7 0.2-0.2 0.4-0.3 0.6-0.5l-0.2-1.2c-0.1-0.5 0.2-0.9 0.7-1 0.5-0.1 0.9 0.2 1 0.7l3 18.8c0 0 0 0 0 0L47.8 47c0.4 0 0.8 0.1 1.2 0.2l5.1-4.6 3-5.8V25.4c0-1 0.8-1.8 1.8-1.8h0.4c0.2-6.9 6-12.5 13.1-12.5 7.1 0 12.9 5.6 13.1 12.5H86c1 0 1.8 0.8 1.8 1.8v11.5C88.5 38.4 88.9 40.1 88.9 41.9zM85.5 24.8c-0.2 2.4-1 4.6-2.4 6.5 1.3 1 2.5 2.1 3.4 3.4v-9.3c0-0.3-0.3-0.6-0.6-0.6H85.5zM60.5 24c0 6.4 5.3 11.6 11.9 11.6 6.6 0 11.9-5.2 11.9-11.6 0-6.4-5.3-11.6-11.9-11.6C65.9 12.4 60.5 17.6 60.5 24zM58.3 34.8c0.9-1.3 2-2.4 3.4-3.4-1.3-1.9-2.2-4.1-2.4-6.5h-0.4c-0.3 0-0.6 0.3-0.6 0.6V34.8zM50.3 51c0.1-1.5-1.1-2.7-2.6-2.8-0.1 0-0.6 0-0.6 0 0 0 0 0 0 0-0.4 0-0.7 0.3-0.7 0.6l-0.2 4.1c0 0.2 0.1 0.3 0.2 0.5 0.1 0.1 0.3 0.2 0.4 0.2 0 0 0.2 0 0.4 0 0.1 0 0.1 0 0.2 0 0 0 0 0 0 0 0 0 0.1 0 0.1 0 0 0 0 0 0 0 0 0 0.1 0 0.1 0 0 0 0 0 0 0 0 0 0.1 0 0.1 0l0 0c0.2 0 0.4-0.1 0.6-0.1 0 0 0 0 0 0 0.2-0.1 0.3-0.1 0.5-0.2C49.8 52.7 50.3 51.9 50.3 51zM81.8 64v-5c-0.3-2.3-2.3-4.1-4.6-4.1-2.3 0-4.3 1.8-4.6 4.1v5.1c1-1.5 2.7-2.4 4.6-2.4C79.1 61.7 80.7 62.6 81.8 64zM77.2 62.9c-2.3 0-4.2 1.8-4.5 4.1h9C81.5 64.7 79.6 62.9 77.2 62.9zM81.8 68.3h-9.1v1.4h9.1V68.3zM86.4 58.2H83v3.4C84.7 61.3 86.1 59.9 86.4 58.2zM87.7 41.9c0-3.8-2-7.3-5.2-9.6-2.4 2.8-6 4.5-10 4.5-4 0-7.6-1.8-10-4.5-1.7 1.3-3.1 2.8-4 4.6 0 0 0 0.1 0 0.1l-3.7 6.8-4.7 4c1 0.8 1.6 2 1.6 3.3 0 0.6-0.2 1.1-0.4 1.5l6.8-3.1 3.2-3.2v0h1.2v18.5 0.9c0.3 2.3 2.2 4.1 4.5 4.1 2.3 0 4.2-1.8 4.5-4.1h0V59c0.3-3 2.8-5.3 5.7-5.3 1.9 0 3.5 0.9 4.6 2.4V46H83v10.8h4.7V41.9z" fill="#000000" data-fill-palette-color="accent"></path></svg></g></svg></g><g></g></svg></g></svg></g></svg></g></svg></g></svg><rect width="320" height="360" fill="none" stroke="none" visibility="hidden"></rect></g></svg></g></svg>