<svg xmlns="http://www.w3.org/2000/svg" xmlns:xlink="http://www.w3.org/1999/xlink" version="1.1" x="0" y="0" width="581" height="472" viewBox="0, 0, 581, 472">
  <g id="Layer_1">
    <path d="M175.221,435.615 C107.694,435.615 52.758,359.538 52.758,266.019 C52.758,172.509 107.694,96.432 175.221,96.432 C211.23,96.432 243.648,118.059 266.076,152.412 L276.876,145.446 C276.03,144.231 275.175,143.016 274.311,141.819 C267.921,132.99 260.649,124.863 252.711,117.564 C244.791,110.256 236.061,103.911 226.791,98.754 C208.242,88.422 187.371,83.175 166.824,84.021 C156.555,84.471 146.439,86.388 136.8,89.637 C127.152,92.877 117.999,97.476 109.476,103.065 C108.378,103.713 107.37,104.523 106.326,105.243 L103.203,107.457 C101.187,109.023 99.189,110.634 97.2,112.227 C95.292,113.946 93.348,115.602 91.476,117.348 L88.713,120.039 C87.804,120.939 86.85,121.794 85.995,122.757 C78.858,130.164 72.522,138.363 66.843,147.012 C55.557,164.382 47.178,183.723 41.67,203.874 C38.898,213.954 36.936,224.259 35.559,234.636 C34.173,245.022 33.498,255.516 33.498,266.019 C33.498,276.531 34.173,287.025 35.559,297.411 C36.936,307.788 38.898,318.102 41.67,328.173 C47.178,348.324 55.557,367.665 66.843,385.035 C72.522,393.684 78.858,401.883 85.995,409.29 C86.85,410.253 87.804,411.108 88.713,412.008 L91.476,414.699 C93.348,416.445 95.292,418.101 97.2,419.82 C99.189,421.413 101.187,423.024 103.203,424.59 L106.326,426.804 C107.37,427.524 108.378,428.334 109.476,428.982 C117.999,434.571 127.152,439.17 136.8,442.41 C146.439,445.659 156.555,447.576 166.824,448.026 C187.371,448.872 208.242,443.625 226.791,433.293 C236.061,428.136 244.791,421.791 252.711,414.483 C260.649,407.184 267.921,399.057 274.311,390.228 C280.71,381.408 286.407,372.003 291.186,362.112 C291.366,361.716 291.555,361.311 291.744,360.906 L278.325,357.459 C256.527,404.439 218.457,435.615 175.221,435.615" fill="#36A0CD"/>
    <path d="M306.279,212.08 C305.345,208.24 304.319,204.425 303.198,200.641 L300.682,192.767 L297.807,185.025 C296.799,182.465 295.69,179.948 294.639,177.409 C293.567,174.879 292.327,172.426 291.182,169.932 C288.848,165.102 286.293,160.39 283.546,155.802 L272.426,162.981 C281.444,179.257 288.382,197.851 292.685,218 L306.279,212.08" fill="#36A0CD"/>
    <path d="M283.194,345.993 L296.793,349.485 C297.135,348.666 297.477,347.847 297.81,347.019 L300.681,339.279 L303.201,331.404 C306.333,320.838 308.754,310.029 310.302,299.085 C311.841,288.141 312.633,277.089 312.714,266.019 C312.633,254.958 311.841,243.906 310.302,232.962 C309.897,230.082 309.429,227.229 308.907,224.376 L294.975,230.442 C296.748,241.917 297.693,253.824 297.693,266.019 C297.693,294.927 292.446,322.152 283.194,345.993" fill="#36A0CD"/>
    <path d="M78.89,319.706 C77.96,319.845 77.273,320.548 76.854,321.379 C76.424,322.216 76.252,323.188 76.239,324.151 C76.253,325.112 76.419,326.086 76.851,326.924 C77.268,327.757 77.959,328.461 78.89,328.6 C79.824,328.74 80.859,328.16 81.489,327.273 C82.129,326.388 82.455,325.266 82.458,324.151 C82.455,323.036 82.128,321.913 81.488,321.027 C80.858,320.143 79.822,319.566 78.89,319.706" fill="#286BA6"/>
    <path d="M124.821,401.001 C124.299,401.991 123.354,402.963 122.004,403.098 C121.347,403.161 120.654,402.999 120.078,402.666 C119.493,402.342 119.007,401.874 118.629,401.343 C117.882,400.281 117.522,399.003 117.513,397.743 C117.522,396.474 117.873,395.196 118.629,394.134 C118.998,393.594 119.493,393.135 120.069,392.802 C120.654,392.478 121.347,392.307 122.004,392.37 C123.354,392.514 124.308,393.486 124.821,394.476 C125.361,395.493 125.559,396.627 125.568,397.743 C125.559,398.85 125.352,399.984 124.821,401.001 M81.702,327.408 C81.189,328.407 80.235,329.37 78.894,329.514 C78.237,329.577 77.544,329.406 76.959,329.082 C76.383,328.749 75.888,328.29 75.519,327.759 C74.763,326.697 74.412,325.41 74.403,324.15 C74.412,322.89 74.763,321.603 75.51,320.541 C75.888,320.01 76.383,319.551 76.959,319.218 C77.544,318.885 78.237,318.723 78.894,318.786 C80.244,318.93 81.189,319.893 81.702,320.892 C82.242,321.909 82.44,323.043 82.458,324.15 C82.44,325.257 82.242,326.391 81.702,327.408 M230.985,396.087 C224.451,401.019 217.242,405.231 209.439,408.066 C204.615,409.848 199.593,411.153 194.481,411.918 L194.517,421.809 L184.257,421.854 L184.221,412.719 C176.121,412.71 168.003,411.36 160.317,408.768 C152.352,406.14 144.909,402.117 138.141,397.266 C131.373,392.406 125.253,386.7 119.799,380.472 C114.345,374.235 109.521,367.485 105.354,360.366 C97.02,346.128 90.999,330.657 87.057,314.736 C86.607,312.729 86.085,310.749 85.68,308.733 L84.492,302.703 L83.502,296.637 C83.178,294.612 82.971,292.569 82.701,290.544 C82.314,287.223 82.026,283.902 81.783,280.572 L72.135,280.698 L71.973,269.034 L81.261,268.908 C81.243,267.945 81.207,266.982 81.207,266.019 C81.261,257.829 81.747,249.648 82.701,241.512 C82.971,239.478 83.178,237.435 83.502,235.41 L84.492,229.344 L85.68,223.314 C86.085,221.298 86.607,219.309 87.057,217.311 C90.999,201.39 97.02,185.919 105.354,171.681 C109.521,164.562 114.345,157.812 119.799,151.575 C125.253,145.338 131.373,139.641 138.141,134.781 C144.909,129.93 152.352,125.907 160.317,123.279 C167.517,120.858 175.086,119.517 182.664,119.346 L182.619,108.042 L193.626,107.997 L193.68,120.021 C199.062,120.768 204.363,122.1 209.439,123.981 C217.242,126.816 224.451,131.028 230.985,135.96 C239.985,142.773 247.653,151.044 254.151,160.116 L262.917,154.455 C241.2,121.155 209.934,100.23 175.221,100.23 C109.791,100.23 56.565,174.606 56.565,266.019 C56.565,357.441 109.791,431.808 175.221,431.808 C216.774,431.808 253.404,401.811 274.608,356.505 L265.041,354.048 C264.177,355.731 263.286,357.396 262.35,359.043 C254.394,373.119 244.107,386.16 230.985,396.087" fill="#286BA6"/>
    <path d="M122.002,393.294 C121.073,393.433 120.386,394.136 119.966,394.967 C119.537,395.805 119.365,396.776 119.351,397.74 C119.365,398.7 119.531,399.674 119.963,400.513 C120.38,401.346 121.071,402.05 122.002,402.187 C122.937,402.328 123.972,401.748 124.601,400.862 C125.241,399.975 125.567,398.853 125.57,397.74 C125.567,396.624 125.24,395.502 124.601,394.616 C123.97,393.73 122.935,393.154 122.002,393.294" fill="#286BA6"/>
    <path d="M279.639,218.113 C280.015,219.805 280.426,221.489 280.78,223.185 L289.135,219.547 C284.95,199.559 278.138,181.127 269.258,165.025 L260.868,170.441 C261.371,171.291 261.864,172.144 262.349,173.002 C270.332,187.118 275.895,202.443 279.639,218.113" fill="#286BA6"/>
    <path d="M283.788,241.917 C284.679,249.918 285.111,257.973 285.12,266.028 C285.12,266.523 285.102,267.018 285.102,267.522 L291.87,267.576 L291.825,273.813 L284.958,273.759 C284.769,279.231 284.391,284.694 283.788,290.13 C283.527,292.128 283.338,294.135 283.032,296.124 L282.096,302.1 L280.962,308.031 C280.575,310.011 280.08,311.964 279.639,313.935 C277.299,323.727 274.248,333.384 270.342,342.69 L279.522,345.048 C288.684,321.54 293.886,294.621 293.886,266.028 C293.886,254.373 293.022,242.997 291.375,232.008 L282.987,235.662 L283.032,235.923 C283.338,237.912 283.527,239.919 283.788,241.917" fill="#286BA6"/>
    <path d="M170.614,146.198 C169.685,146.336 168.998,147.04 168.578,147.87 C168.148,148.708 167.977,149.68 167.963,150.642 C167.978,151.603 168.143,152.578 168.575,153.416 C168.992,154.249 169.683,154.953 170.614,155.091 C171.548,155.231 172.583,154.652 173.213,153.766 C173.853,152.879 174.179,151.756 174.182,150.642 C174.179,149.528 173.852,148.406 173.212,147.519 C172.582,146.634 171.546,146.057 170.614,146.198" fill="#EB8D30"/>
    <path d="M110.704,298.497 C109.774,298.636 109.087,299.339 108.668,300.17 C108.238,301.007 108.066,301.979 108.052,302.942 C108.067,303.903 108.232,304.878 108.665,305.715 C109.082,306.548 109.772,307.252 110.704,307.391 C111.639,307.531 112.673,306.951 113.303,306.065 C113.943,305.179 114.269,304.057 114.272,302.942 C114.269,301.827 113.942,300.704 113.302,299.818 C112.671,298.934 111.636,298.357 110.704,298.497" fill="#EB8D30"/>
    <path d="M256.551,232.736 C256.617,233.041 256.688,233.345 256.758,233.648 L278.262,224.283 C277.882,222.43 277.409,220.597 276.988,218.753 C273.17,203.333 267.339,188.392 259.34,174.739 C258.869,173.939 258.389,173.145 257.903,172.356 L235.069,187.096 C238.715,191.533 241.895,196.325 244.666,201.286 C250.186,211.151 253.995,221.835 256.551,232.736" fill="#EB8D30"/>
    <path d="M260.316,266.019 C260.298,271.617 260.001,277.206 259.38,282.768 C259.2,284.154 259.065,285.549 258.858,286.926 L258.228,291.075 L257.454,295.206 C257.193,296.583 256.851,297.942 256.554,299.31 C253.998,310.209 250.182,320.892 244.665,330.765 C243.792,332.322 242.865,333.861 241.911,335.382 L267.228,341.889 C271.314,332.691 274.563,323.088 276.984,313.296 C277.425,311.352 277.938,309.435 278.325,307.482 L279.486,301.632 L280.44,295.746 C280.755,293.784 280.953,291.804 281.214,289.833 C281.844,284.487 282.249,279.123 282.465,273.741 L274.131,273.678 L274.185,267.432 L282.645,267.504 C282.645,267.009 282.672,266.514 282.672,266.019 C282.618,258.063 282.141,250.107 281.214,242.214 C280.971,240.387 280.773,238.56 280.503,236.742 L258.984,246.12 C259.119,247.173 259.245,248.226 259.38,249.279 C260.001,254.841 260.298,260.43 260.316,266.019" fill="#EB8D30"/>
    <path d="M137.166,363.859 C136.236,363.998 135.549,364.7 135.13,365.531 C134.7,366.369 134.528,367.341 134.515,368.305 C134.528,369.266 134.694,370.239 135.126,371.077 C135.544,371.91 136.235,372.614 137.166,372.753 C138.1,372.892 139.135,372.313 139.765,371.427 C140.405,370.54 140.73,369.419 140.733,368.305 C140.73,367.188 140.403,366.066 139.764,365.181 C139.134,364.296 138.098,363.719 137.166,363.859" fill="#EB8D30"/>
    <path d="M139.977,371.562 C139.464,372.561 138.51,373.524 137.169,373.668 C136.512,373.722 135.819,373.56 135.243,373.236 C134.658,372.903 134.163,372.444 133.794,371.913 C133.047,370.851 132.687,369.564 132.678,368.304 C132.687,367.044 133.038,365.757 133.785,364.695 C134.163,364.164 134.658,363.705 135.234,363.372 C135.819,363.039 136.512,362.877 137.169,362.94 C138.519,363.075 139.464,364.047 139.977,365.046 C140.526,366.063 140.715,367.188 140.733,368.304 C140.715,369.411 140.517,370.545 139.977,371.562 M113.517,306.204 C113.004,307.194 112.05,308.166 110.7,308.301 C110.052,308.364 109.359,308.202 108.774,307.869 C108.198,307.536 107.703,307.077 107.334,306.546 C106.578,305.484 106.227,304.206 106.218,302.937 C106.227,301.677 106.578,300.399 107.325,299.328 C107.694,298.797 108.198,298.338 108.774,298.005 C109.359,297.681 110.052,297.519 110.7,297.573 C112.05,297.717 113.004,298.689 113.517,299.679 C114.057,300.696 114.255,301.83 114.273,302.937 C114.255,304.053 114.057,305.187 113.517,306.204 M167.238,147.03 C167.607,146.499 168.102,146.04 168.687,145.707 C169.263,145.374 169.956,145.212 170.613,145.275 C171.963,145.419 172.917,146.382 173.43,147.381 C173.97,148.398 174.168,149.532 174.186,150.639 C174.168,151.755 173.97,152.88 173.43,153.897 C172.917,154.896 171.963,155.859 170.613,156.003 C169.956,156.066 169.272,155.904 168.687,155.571 C168.111,155.238 167.616,154.779 167.238,154.248 C166.491,153.186 166.131,151.908 166.131,150.639 C166.131,149.379 166.482,148.101 167.238,147.03 M222.894,356.82 C218.322,360.321 213.273,363.345 207.765,365.397 C202.284,367.485 196.407,368.682 190.458,368.853 C184.518,368.97 178.542,368.043 172.872,366.198 C167.193,364.371 161.865,361.572 157.041,358.17 C147.375,351.321 139.59,342.24 133.65,332.268 C127.719,322.269 123.417,311.406 120.591,300.228 C117.738,289.041 116.514,277.512 116.424,266.019 C116.514,254.535 117.738,243.006 120.591,231.819 C123.417,220.641 127.719,209.787 133.65,199.779 C139.59,189.807 147.375,180.726 157.041,173.877 C161.865,170.475 167.193,167.676 172.872,165.849 C178.542,164.004 184.518,163.077 190.458,163.194 C196.407,163.365 202.284,164.562 207.765,166.65 C213.273,168.702 218.322,171.726 222.894,175.227 C224.082,176.136 225.234,177.081 226.35,178.062 L250.947,162.177 C244.458,153.609 236.88,145.923 228.231,139.713 C221.895,135.177 214.974,131.46 207.639,129.048 C203.103,127.527 198.423,126.483 193.698,125.916 L193.743,136.221 L182.736,136.266 L182.691,125.547 C175.824,125.934 169.047,127.365 162.612,129.75 C155.43,132.36 148.752,136.275 142.641,140.901 C130.374,150.18 120.573,162.564 112.959,176.064 C105.309,189.591 99.936,204.387 96.318,219.552 C95.895,221.46 95.409,223.35 95.04,225.267 L93.933,231.018 L93.033,236.805 C92.736,238.731 92.547,240.684 92.304,242.619 C91.44,250.386 91.017,258.207 91.008,266.019 C91.008,266.937 91.035,267.855 91.044,268.773 L98.775,268.665 L98.937,280.329 L91.521,280.437 C91.719,283.434 91.971,286.44 92.304,289.428 C92.547,291.363 92.736,293.316 93.033,295.242 L93.933,301.029 L95.04,306.78 C95.409,308.697 95.895,310.587 96.318,312.495 C99.936,327.66 105.309,342.456 112.959,355.983 C120.573,369.483 130.374,381.867 142.641,391.146 C148.752,395.772 155.43,399.687 162.612,402.297 C169.515,404.853 176.814,406.32 184.194,406.563 L184.158,397.356 L194.418,397.311 L194.454,406.023 C198.918,405.447 203.346,404.43 207.639,402.999 C214.974,400.587 221.895,396.87 228.231,392.334 C240.93,383.217 251.334,370.923 259.344,357.306 C260.136,355.947 260.901,354.561 261.648,353.175 L234.081,346.092 C230.742,350.007 227.043,353.643 222.894,356.82" fill="#EB8D30"/>
    <path d="M152.552,314.8 C151.623,314.939 150.936,315.642 150.517,316.473 C150.086,317.31 149.915,318.282 149.901,319.245 C149.916,320.207 150.081,321.181 150.513,322.018 C150.931,322.851 151.621,323.556 152.552,323.694 C153.486,323.834 154.522,323.256 155.151,322.367 C155.792,321.481 156.117,320.36 156.12,319.245 C156.117,318.13 155.791,317.008 155.15,316.121 C154.52,315.237 153.485,314.66 152.552,314.8" fill="#F9EC33"/>
    <path d="M195.442,339.181 C194.512,339.319 193.825,340.022 193.406,340.853 C192.976,341.691 192.804,342.663 192.791,343.627 C192.804,344.587 192.97,345.56 193.402,346.399 C193.82,347.232 194.511,347.936 195.442,348.074 C196.376,348.215 197.412,347.635 198.041,346.749 C198.681,345.862 199.006,344.74 199.009,343.627 C199.006,342.511 198.679,341.389 198.04,340.503 C197.41,339.617 196.374,339.041 195.442,339.181" fill="#F9EC33"/>
    <path d="M144.301,273.345 C143.372,273.483 142.685,274.186 142.266,275.017 C141.835,275.855 141.664,276.827 141.65,277.79 C141.665,278.751 141.83,279.725 142.263,280.562 C142.68,281.395 143.37,282.1 144.301,282.239 C145.236,282.379 146.271,281.799 146.9,280.912 C147.541,280.025 147.866,278.904 147.87,277.79 C147.866,276.675 147.54,275.552 146.899,274.666 C146.269,273.782 145.234,273.205 144.301,273.345" fill="#F9EC33"/>
    <path d="M198.261,346.884 C197.739,347.883 196.794,348.846 195.444,348.99 C194.787,349.044 194.094,348.882 193.518,348.558 C192.933,348.225 192.438,347.766 192.069,347.235 C191.322,346.173 190.962,344.886 190.953,343.626 C190.962,342.357 191.313,341.079 192.06,340.017 C192.438,339.486 192.933,339.027 193.509,338.694 C194.094,338.361 194.787,338.199 195.444,338.262 C196.794,338.397 197.748,339.369 198.261,340.368 C198.801,341.385 198.99,342.519 199.008,343.626 C198.999,344.733 198.792,345.867 198.261,346.884 M155.367,322.503 C154.854,323.502 153.9,324.465 152.55,324.609 C151.893,324.663 151.209,324.501 150.624,324.177 C150.048,323.844 149.553,323.385 149.175,322.854 C148.428,321.792 148.068,320.505 148.068,319.245 C148.068,317.985 148.428,316.698 149.175,315.636 C149.544,315.105 150.039,314.646 150.624,314.313 C151.209,313.98 151.893,313.818 152.55,313.881 C153.9,314.025 154.854,314.988 155.367,315.987 C155.907,317.004 156.105,318.138 156.123,319.245 C156.105,320.352 155.907,321.486 155.367,322.503 M147.114,281.049 C146.601,282.048 145.647,283.011 144.297,283.146 C143.649,283.209 142.956,283.047 142.371,282.723 C141.795,282.39 141.3,281.922 140.931,281.4 C140.184,280.329 139.824,279.051 139.815,277.791 C139.824,276.531 140.175,275.244 140.922,274.182 C141.3,273.642 141.795,273.183 142.371,272.85 C142.956,272.526 143.649,272.364 144.297,272.418 C145.647,272.562 146.601,273.534 147.114,274.533 C147.654,275.55 147.852,276.675 147.87,277.791 C147.852,278.898 147.654,280.032 147.114,281.049 M160.101,209.022 C160.47,208.491 160.965,208.023 161.55,207.69 C162.135,207.366 162.819,207.204 163.476,207.258 C164.826,207.402 165.78,208.374 166.293,209.373 C166.833,210.39 167.031,211.515 167.049,212.631 C167.031,213.738 166.833,214.872 166.293,215.889 C165.78,216.879 164.826,217.851 163.476,217.995 C162.819,218.049 162.135,217.887 161.55,217.563 C160.974,217.23 160.479,216.762 160.101,216.24 C159.354,215.169 158.994,213.891 158.994,212.631 C158.994,211.362 159.354,210.084 160.101,209.022 M234.324,217.041 C234.702,216.51 235.197,216.051 235.773,215.718 C236.358,215.385 237.051,215.223 237.708,215.286 C239.058,215.43 240.012,216.393 240.525,217.392 C241.065,218.409 241.254,219.543 241.272,220.65 C241.254,221.757 241.065,222.891 240.516,223.908 C240.003,224.907 239.049,225.87 237.708,226.014 C237.051,226.068 236.358,225.906 235.782,225.582 C235.197,225.249 234.702,224.79 234.333,224.259 C233.586,223.188 233.226,221.91 233.217,220.65 C233.226,219.39 233.577,218.103 234.324,217.041 M241.497,277.341 C241.866,276.81 242.361,276.351 242.946,276.018 C243.522,275.694 244.215,275.523 244.872,275.586 C246.222,275.73 247.176,276.702 247.689,277.692 C248.229,278.709 248.427,279.843 248.436,280.95 C248.427,282.066 248.229,283.2 247.689,284.217 C247.176,285.207 246.222,286.179 244.872,286.314 C244.215,286.377 243.522,286.215 242.946,285.882 C242.361,285.558 241.875,285.09 241.497,284.559 C240.75,283.497 240.39,282.219 240.39,280.95 C240.39,279.69 240.741,278.412 241.497,277.341 M237.654,334.293 C238.905,332.493 240.12,330.666 241.245,328.785 C246.789,319.443 250.875,309.192 253.557,298.59 C256.275,287.97 257.445,276.99 257.526,266.019 C257.481,259.773 257.067,253.518 256.221,247.317 L231.867,257.928 C232.191,260.619 232.344,263.328 232.353,266.019 C232.326,276.576 229.995,287.268 224.478,296.709 C221.706,301.398 218.106,305.772 213.462,309.21 C208.845,312.63 203.058,314.997 196.911,315.402 C190.782,315.816 184.437,314.259 179.046,311.253 C173.655,308.238 169.164,303.954 165.672,299.121 C162.162,294.288 159.615,288.879 157.923,283.272 C157.095,280.455 156.447,277.602 156.051,274.713 C155.655,271.833 155.448,268.926 155.421,266.019 C155.448,263.121 155.655,260.214 156.051,257.334 C156.447,254.445 157.095,251.592 157.923,248.775 C159.615,243.168 162.162,237.759 165.672,232.926 C169.164,228.093 173.655,223.809 179.046,220.794 C184.437,217.788 190.782,216.231 196.911,216.645 C203.058,217.05 208.845,219.417 213.462,222.837 C218.106,226.275 221.706,230.649 224.478,235.338 C226.413,238.65 227.952,242.115 229.14,245.679 L253.899,234.897 C253.782,234.42 253.683,233.934 253.557,233.457 C250.875,222.855 246.789,212.604 241.245,203.262 C238.329,198.384 234.954,193.785 231.156,189.627 L188.586,217.104 C183.222,217.851 180.468,212.163 182.817,208.158 L183.024,208.023 L182.115,206.619 L221.778,181.014 C221.112,180.501 220.446,179.979 219.762,179.493 C215.424,176.451 210.699,173.985 205.731,172.419 C200.772,170.817 195.597,170.043 190.458,170.16 C185.319,170.331 180.261,171.384 175.482,173.211 C170.685,175.011 166.239,177.693 162.153,180.843 C153.945,187.152 147.402,195.585 142.29,204.765 C137.151,213.972 133.56,224.052 131.148,234.375 C130.86,235.671 130.536,236.958 130.293,238.263 L129.555,242.178 L128.961,246.12 C128.763,247.443 128.637,248.766 128.466,250.08 C127.872,255.372 127.584,260.691 127.575,266.019 C127.584,271.356 127.872,276.675 128.466,281.967 C128.637,283.281 128.763,284.604 128.961,285.918 L129.555,289.869 L130.293,293.784 C130.536,295.089 130.86,296.376 131.148,297.672 C133.56,307.995 137.151,318.075 142.29,327.273 C147.402,336.453 153.945,344.895 162.153,351.204 C166.239,354.354 170.685,357.036 175.482,358.836 C180.261,360.663 185.319,361.716 190.458,361.887 C195.597,362.004 200.772,361.221 205.731,359.628 C210.699,358.062 215.424,355.596 219.762,352.554 C223.029,350.25 226.089,347.631 228.933,344.769 L211.257,340.233 C206.883,337.263 209.331,329.919 213.912,329.919 L214.146,329.982 L214.56,328.362 L237.654,334.293" fill="#F9EC33"/>
    <path d="M244.872,276.51 C243.942,276.648 243.255,277.352 242.835,278.182 C242.406,279.019 242.234,279.992 242.22,280.955 C242.234,281.916 242.4,282.89 242.832,283.727 C243.25,284.56 243.94,285.265 244.872,285.404 C245.806,285.544 246.841,284.964 247.47,284.078 C248.11,283.191 248.436,282.069 248.439,280.955 C248.436,279.84 248.109,278.717 247.47,277.831 C246.839,276.947 245.804,276.37 244.872,276.51" fill="#F9EC33"/>
    <path d="M163.479,208.184 C162.549,208.323 161.862,209.026 161.443,209.857 C161.013,210.695 160.841,211.667 160.827,212.629 C160.841,213.59 161.007,214.565 161.439,215.403 C161.856,216.236 162.547,216.939 163.479,217.078 C164.413,217.217 165.448,216.639 166.078,215.752 C166.717,214.866 167.043,213.743 167.046,212.629 C167.043,211.514 166.716,210.392 166.077,209.506 C165.446,208.62 164.411,208.043 163.479,208.184" fill="#F9EC33"/>
    <path d="M237.705,216.205 C236.775,216.343 236.088,217.047 235.669,217.878 C235.239,218.716 235.067,219.687 235.054,220.649 C235.068,221.611 235.234,222.585 235.667,223.423 C236.083,224.257 236.774,224.96 237.705,225.099 C238.64,225.238 239.675,224.659 240.304,223.773 C240.944,222.887 241.27,221.764 241.274,220.649 C241.27,219.535 240.943,218.413 240.303,217.527 C239.673,216.641 238.637,216.064 237.705,216.205" fill="#F9EC33"/>
    <path d="M196.909,239.02 C195.979,239.16 195.292,239.862 194.873,240.694 C194.443,241.531 194.271,242.503 194.257,243.465 C194.272,244.427 194.438,245.401 194.87,246.239 C195.287,247.072 195.978,247.776 196.909,247.915 C197.843,248.054 198.878,247.475 199.508,246.588 C200.148,245.703 200.474,244.58 200.478,243.465 C200.474,242.35 200.147,241.228 199.507,240.342 C198.876,239.457 197.841,238.881 196.909,239.02" fill="#D8272D"/>
    <path d="M187.583,288.684 C186.654,288.824 185.967,289.526 185.547,290.358 C185.117,291.195 184.946,292.168 184.932,293.131 C184.947,294.092 185.112,295.065 185.544,295.903 C185.961,296.736 186.652,297.44 187.583,297.58 C188.517,297.72 189.553,297.14 190.182,296.253 C190.822,295.367 191.148,294.245 191.151,293.131 C191.148,292.016 190.821,290.892 190.181,290.007 C189.551,289.123 188.516,288.546 187.583,288.684" fill="#D8272D"/>
    <path d="M199.728,246.723 C199.206,247.722 198.261,248.685 196.911,248.829 C196.254,248.883 195.561,248.721 194.985,248.397 C194.4,248.064 193.914,247.605 193.536,247.074 C192.789,246.012 192.429,244.725 192.42,243.465 C192.429,242.205 192.78,240.918 193.527,239.856 C193.905,239.325 194.4,238.866 194.976,238.533 C195.561,238.2 196.254,238.038 196.911,238.101 C198.261,238.245 199.215,239.208 199.728,240.207 C200.268,241.224 200.457,242.358 200.475,243.465 C200.466,244.572 200.268,245.706 199.728,246.723 M184.203,289.518 C184.581,288.987 185.076,288.528 185.652,288.195 C186.237,287.862 186.93,287.7 187.587,287.763 C188.937,287.907 189.882,288.87 190.395,289.869 C190.935,290.886 191.133,292.02 191.151,293.127 C191.133,294.243 190.935,295.368 190.395,296.385 C189.882,297.384 188.928,298.347 187.587,298.491 C186.93,298.554 186.237,298.392 185.661,298.059 C185.076,297.726 184.581,297.267 184.212,296.736 C183.456,295.674 183.105,294.396 183.096,293.127 C183.105,291.867 183.456,290.589 184.203,289.518 M196.911,224.196 C179.496,224.196 165.375,242.925 165.375,266.019 C165.375,289.122 179.496,307.851 196.911,307.851 C214.326,307.851 228.447,289.122 228.447,266.019 C228.447,263.832 228.312,261.681 228.069,259.584 L186.264,277.791 C182.556,277.278 179.856,271.824 182.016,268.026 L182.241,267.936 L181.575,266.397 L225.153,247.416 C219.987,233.655 209.286,224.196 196.911,224.196" fill="#D8272D"/>
    <path d="M302.85,358.494 L302.85,358.494 L285.732,346.645 L296.793,349.485 C297.135,348.666 297.477,347.847 297.81,347.019 L297.985,346.547 L305.649,351.87 L302.85,358.494 M283.53,345.12 L280.34,342.912 C281.196,340.637 282.014,338.333 282.796,335.997 L286.02,338.237 C285.227,340.561 284.396,342.855 283.53,345.12 M272.441,337.444 L269.848,335.649 C270.747,333.378 271.598,331.086 272.4,328.777 L274.913,330.522 C274.136,332.846 273.313,335.154 272.441,337.444 M249.294,321.422 L246.237,319.305 C247.261,317.101 248.214,314.861 249.096,312.591 L252.016,314.619 C251.179,316.912 250.274,319.182 249.294,321.422" fill="#444440"/>
    <path d="M296.793,349.485 L285.732,346.645 L283.53,345.12 C284.396,342.855 285.227,340.561 286.02,338.237 L297.985,346.547 L297.81,347.019 C297.477,347.847 297.135,348.666 296.793,349.485" fill="#2A393C"/>
    <path d="M280.34,342.912 L272.441,337.444 C273.313,335.154 274.136,332.846 274.913,330.522 L282.796,335.997 C282.014,338.333 281.196,340.637 280.34,342.912" fill="#252F36"/>
    <path d="M269.848,335.649 L249.294,321.422 C250.274,319.182 251.179,316.912 252.016,314.619 L272.4,328.777 C271.598,331.086 270.747,333.378 269.848,335.649" fill="#423426"/>
    <path d="M220.99,301.829 L216.546,298.753 C218.158,297.05 219.641,295.142 220.973,293.059 L224.976,295.839 C224.813,296.13 224.647,296.42 224.478,296.709 C223.436,298.471 222.277,300.189 220.99,301.829" fill="#444440"/>
    <path d="M246.237,319.305 L220.99,301.829 C222.277,300.189 223.436,298.471 224.478,296.709 C224.647,296.42 224.813,296.13 224.976,295.839 L249.096,312.591 C248.214,314.861 247.261,317.101 246.237,319.305" fill="#42422C"/>
    <path d="M186.264,277.791 L186.525,269.142 L186.538,269.142 L194.086,274.384 L186.264,277.791" fill="#444440"/>
    <path d="M216.546,298.753 L186.264,277.791 L194.086,274.384 L220.973,293.059 C219.641,295.142 218.158,297.05 216.546,298.753" fill="#3F2621"/>
    <path d="M314.424,317.283 L314.424,317.283 L308.026,312.193 C308.572,309.536 309.069,306.868 309.515,304.192 L315.981,309.318 L314.424,317.283 M294.951,301.791 L291.521,299.062 C291.919,296.318 292.269,293.547 292.569,290.757 L296.081,293.541 C295.752,296.314 295.376,299.064 294.951,301.791 M283.481,292.666 L281.094,290.767 C281.133,290.456 281.173,290.144 281.214,289.833 C281.508,287.339 281.752,284.841 281.952,282.339 L284.353,284.243 C284.193,286.208 284.005,288.171 283.788,290.13 C283.678,290.974 283.58,291.82 283.481,292.666 M260.092,274.058 L257.375,271.897 C257.462,269.938 257.512,267.979 257.526,266.019 C257.519,264.99 257.501,263.961 257.473,262.933 L260.311,265.182 C260.313,265.461 260.315,265.74 260.316,266.019 C260.307,268.701 260.234,271.382 260.092,274.058 M237.004,255.69 L224.482,245.728 C219.175,233.073 209.071,224.448 197.425,224.202 L188.658,217.227 C190.734,216.803 192.846,216.579 194.946,216.579 C195.603,216.579 196.258,216.601 196.911,216.645 C197.762,216.701 198.605,216.795 199.44,216.924 L225.869,237.877 C227.168,240.407 228.252,243.016 229.14,245.679 L233.381,243.832 L244.318,252.503 L237.004,255.69 M188.514,217.113 L187.587,216.375 L187.839,207.726 L194.695,213.161 L188.586,217.104 C188.562,217.107 188.538,217.11 188.514,217.113" fill="#444440"/>
    <path d="M308.026,312.193 L294.951,301.791 C295.376,299.064 295.752,296.314 296.081,293.541 L309.515,304.192 C309.069,306.868 308.572,309.536 308.026,312.193" fill="#2A393C"/>
    <path d="M291.521,299.062 L283.481,292.666 C283.58,291.82 283.678,290.974 283.788,290.13 C284.005,288.171 284.193,286.208 284.353,284.243 L292.569,290.757 C292.269,293.547 291.919,296.318 291.521,299.062" fill="#252F36"/>
    <path d="M281.094,290.767 L260.092,274.058 C260.234,271.382 260.307,268.701 260.316,266.019 C260.315,265.74 260.313,265.461 260.311,265.182 L281.952,282.339 C281.752,284.841 281.508,287.339 281.214,289.833 C281.173,290.144 281.133,290.456 281.094,290.767" fill="#423426"/>
    <path d="M257.375,271.897 L237.004,255.69 L244.318,252.503 L257.473,262.933 C257.501,263.961 257.519,264.99 257.526,266.019 C257.512,267.979 257.462,269.938 257.375,271.897 M229.14,245.679 C228.252,243.016 227.168,240.407 225.869,237.877 L233.381,243.832 L229.14,245.679 M188.658,217.227 L188.514,217.113 C188.538,217.11 188.562,217.107 188.586,217.104 L194.695,213.161 L199.44,216.924 C198.605,216.795 197.762,216.701 196.911,216.645 C196.258,216.601 195.603,216.579 194.946,216.579 C192.846,216.579 190.734,216.803 188.658,217.227" fill="#42422C"/>
    <path d="M224.482,245.728 L197.425,224.202 C209.071,224.448 219.175,233.073 224.482,245.728" fill="#3F2621"/>
    <path d="M285.876,391.848 L285.876,391.848 L277.453,385.766 C278.755,383.86 280.024,381.931 281.258,379.975 L289.368,385.584 L285.876,391.848 M266.991,378.213 L263.935,376.007 C265.107,374.163 266.252,372.281 267.365,370.365 L270.471,372.513 C269.341,374.447 268.179,376.351 266.991,378.213 M255.544,369.948 L252.514,367.761 C253.747,366.06 254.938,364.325 256.086,362.564 L259.044,364.61 C257.918,366.413 256.752,368.195 255.544,369.948 M229.438,351.1 L225.344,348.145 C226.576,347.063 227.773,345.937 228.933,344.769 L216.112,341.479 L212.292,338.721 L214.587,333.861 L233.404,346.876 C232.135,348.328 230.815,349.739 229.438,351.1" fill="#444440"/>
    <path d="M277.453,385.766 L266.991,378.213 C268.179,376.351 269.341,374.447 270.471,372.513 L281.258,379.975 C280.024,381.931 278.755,383.86 277.453,385.766" fill="#2A393C"/>
    <path d="M263.935,376.007 L255.544,369.948 C256.752,368.195 257.918,366.413 259.044,364.61 L267.365,370.365 C266.252,372.281 265.107,374.163 263.935,376.007" fill="#252F36"/>
    <path d="M252.514,367.761 L229.438,351.1 C230.815,349.739 232.135,348.328 233.404,346.876 L256.086,362.564 C254.938,364.325 253.747,366.06 252.514,367.761" fill="#423426"/>
    <path d="M225.344,348.145 L216.112,341.479 L228.933,344.769 C227.773,345.937 226.576,347.063 225.344,348.145" fill="#42422C"/>
    <path d="M242.945,285.885 C243.526,286.213 244.215,286.377 244.872,286.317 C246.219,286.175 247.171,285.21 247.686,284.213 C248.226,283.196 248.424,282.065 248.439,280.954 C248.436,282.068 248.11,283.191 247.47,284.078 C246.841,284.964 245.806,285.543 244.872,285.405 C243.94,285.265 243.25,284.561 242.832,283.727 C242.4,282.89 242.235,281.915 242.22,280.954 C242.235,279.992 242.406,279.021 242.835,278.183 C243.255,277.352 243.942,276.649 244.872,276.51 C245.803,276.369 246.839,276.946 247.47,277.832 C248.109,278.718 248.436,279.84 248.439,280.954 C248.424,279.844 248.227,278.713 247.687,277.695 C247.174,276.698 246.222,275.731 244.872,275.587 C244.214,275.527 243.524,275.691 242.942,276.019 C242.362,276.352 241.865,276.811 241.494,277.344 C240.743,278.41 240.391,279.691 240.386,280.954 C240.39,282.218 240.749,283.497 241.497,284.563 C241.872,285.093 242.365,285.554 242.945,285.885 M196.908,238.098 C196.252,238.038 195.562,238.201 194.979,238.53 C194.399,238.863 193.903,239.323 193.531,239.855 C192.781,240.92 192.429,242.202 192.424,243.465 C192.428,244.729 192.787,246.009 193.535,247.073 C193.91,247.603 194.402,248.064 194.982,248.395 C195.564,248.724 196.253,248.887 196.908,248.827 C198.257,248.685 199.209,247.72 199.724,246.725 C200.264,245.707 200.461,244.576 200.477,243.465 C200.474,244.58 200.148,245.703 199.507,246.588 C198.879,247.475 197.842,248.054 196.908,247.915 C195.978,247.776 195.287,247.072 194.87,246.239 C194.438,245.401 194.272,244.427 194.258,243.465 C194.272,242.503 194.443,241.531 194.874,240.694 C195.293,239.862 195.979,239.16 196.908,239.02 C197.84,238.881 198.876,239.457 199.506,240.342 C200.147,241.228 200.475,242.35 200.477,243.465 C200.461,242.354 200.265,241.223 199.725,240.206 C199.212,239.209 198.259,238.242 196.908,238.098 M235.778,225.58 C236.36,225.908 237.049,226.072 237.705,226.011 C239.053,225.87 240.005,224.904 240.52,223.908 C241.06,222.891 241.258,221.761 241.273,220.649 C241.27,221.764 240.944,222.887 240.304,223.772 C239.675,224.659 238.64,225.238 237.705,225.099 C236.774,224.961 236.084,224.256 235.667,223.423 C235.233,222.585 235.068,221.61 235.054,220.649 C235.068,219.687 235.24,218.715 235.669,217.877 C236.088,217.047 236.775,216.344 237.705,216.204 C238.637,216.065 239.673,216.641 240.303,217.526 C240.943,218.412 241.27,219.536 241.273,220.649 C241.258,219.539 241.061,218.407 240.521,217.391 C240.007,216.393 239.055,215.426 237.705,215.282 C237.049,215.223 236.357,215.385 235.776,215.714 C235.196,216.047 234.699,216.507 234.327,217.039 C233.578,218.104 233.224,219.386 233.22,220.649 C233.224,221.913 233.582,223.193 234.331,224.257 C234.706,224.787 235.199,225.248 235.778,225.58 M170.614,145.275 C169.957,145.215 169.266,145.378 168.685,145.707 C168.105,146.04 167.608,146.499 167.236,147.032 C166.485,148.097 166.133,149.378 166.13,150.641 C166.133,151.906 166.492,153.185 167.24,154.25 C167.615,154.779 168.107,155.241 168.687,155.572 C169.269,155.901 169.958,156.064 170.614,156.004 C171.962,155.862 172.915,154.896 173.429,153.9 C173.97,152.884 174.167,151.753 174.182,150.641 C174.179,151.756 173.853,152.879 173.212,153.766 C172.584,154.651 171.548,155.23 170.614,155.092 C169.684,154.954 168.993,154.249 168.576,153.415 C168.143,152.578 167.977,151.603 167.964,150.641 C167.977,149.68 168.149,148.708 168.579,147.87 C168.999,147.039 169.685,146.336 170.614,146.197 C171.546,146.058 172.582,146.633 173.212,147.519 C173.852,148.405 174.18,149.528 174.182,150.641 C174.167,149.532 173.97,148.4 173.43,147.383 C172.917,146.386 171.964,145.418 170.614,145.275 M161.552,217.56 C162.134,217.887 162.823,218.051 163.479,217.991 C164.826,217.85 165.778,216.883 166.293,215.887 C166.833,214.87 167.032,213.74 167.046,212.63 C167.043,213.743 166.717,214.866 166.077,215.752 C165.448,216.639 164.413,217.217 163.479,217.079 C162.547,216.94 161.856,216.235 161.439,215.403 C161.007,214.565 160.841,213.59 160.827,212.63 C160.841,211.667 161.013,210.694 161.443,209.857 C161.862,209.026 162.549,208.323 163.479,208.184 C164.411,208.043 165.445,208.62 166.077,209.507 C166.716,210.391 167.043,211.515 167.046,212.63 C167.032,211.518 166.834,210.386 166.294,209.37 C165.781,208.373 164.829,207.405 163.479,207.262 C162.822,207.201 162.131,207.365 161.548,207.694 C160.97,208.027 160.472,208.487 160.101,209.019 C159.35,210.083 158.998,211.365 158.993,212.63 C158.997,213.892 159.356,215.171 160.104,216.237 C160.479,216.766 160.972,217.227 161.552,217.56 M110.704,297.574 C110.047,297.515 109.356,297.678 108.775,298.007 C108.194,298.34 107.698,298.799 107.326,299.331 C106.576,300.396 106.224,301.679 106.219,302.941 C106.223,304.206 106.582,305.484 107.329,306.549 C107.704,307.08 108.197,307.54 108.777,307.872 C109.359,308.2 110.048,308.364 110.704,308.304 C112.051,308.162 113.004,307.196 113.519,306.2 C114.059,305.183 114.257,304.054 114.271,302.941 C114.268,304.057 113.942,305.179 113.303,306.065 C112.674,306.951 111.638,307.531 110.704,307.391 C109.773,307.252 109.082,306.548 108.665,305.715 C108.232,304.878 108.067,303.903 108.053,302.941 C108.067,301.979 108.238,301.007 108.668,300.17 C109.087,299.339 109.775,298.636 110.704,298.497 C111.636,298.357 112.672,298.934 113.301,299.818 C113.941,300.704 114.269,301.827 114.271,302.941 C114.257,301.831 114.06,300.699 113.52,299.683 C113.006,298.685 112.054,297.718 110.704,297.574 M76.963,329.081 C77.546,329.409 78.235,329.573 78.89,329.514 C80.238,329.37 81.19,328.405 81.705,327.409 C82.244,326.392 82.443,325.261 82.458,324.15 C82.454,325.265 82.128,326.388 81.488,327.273 C80.86,328.16 79.824,328.739 78.89,328.6 C77.959,328.461 77.269,327.758 76.851,326.924 C76.419,326.086 76.253,325.111 76.239,324.15 C76.253,323.188 76.424,322.217 76.855,321.379 C77.274,320.548 77.96,319.846 78.89,319.706 C79.823,319.565 80.857,320.142 81.487,321.028 C82.127,321.913 82.456,323.036 82.458,324.15 C82.442,323.039 82.246,321.909 81.706,320.891 C81.192,319.894 80.24,318.928 78.89,318.783 C78.234,318.723 77.542,318.887 76.96,319.216 C76.38,319.548 75.884,320.008 75.512,320.54 C74.761,321.606 74.409,322.887 74.405,324.15 C74.409,325.414 74.768,326.693 75.515,327.759 C75.89,328.289 76.384,328.75 76.963,329.081 M120.076,402.67 C120.657,402.997 121.346,403.161 122.002,403.1 C123.35,402.959 124.302,401.993 124.817,400.997 C125.357,399.98 125.555,398.85 125.57,397.74 C125.567,398.853 125.241,399.975 124.601,400.862 C123.972,401.748 122.937,402.328 122.002,402.187 C121.071,402.05 120.38,401.346 119.963,400.513 C119.531,399.674 119.366,398.7 119.351,397.74 C119.365,396.776 119.537,395.805 119.966,394.967 C120.386,394.136 121.073,393.433 122.002,393.294 C122.935,393.154 123.97,393.73 124.601,394.616 C125.24,395.502 125.567,396.624 125.57,397.74 C125.555,396.628 125.358,395.497 124.818,394.479 C124.305,393.482 123.353,392.515 122.002,392.372 C121.345,392.312 120.655,392.474 120.073,392.804 C119.493,393.137 118.996,393.597 118.625,394.129 C117.874,395.193 117.521,396.475 117.517,397.74 C117.521,399.003 117.879,400.281 118.627,401.347 C119.002,401.876 119.496,402.338 120.076,402.67 M135.239,373.234 C135.822,373.561 136.511,373.725 137.166,373.666 C138.514,373.523 139.466,372.558 139.981,371.562 C140.521,370.545 140.718,369.414 140.734,368.304 C140.73,369.419 140.405,370.54 139.764,371.427 C139.136,372.313 138.1,372.891 137.166,372.753 C136.234,372.614 135.544,371.91 135.127,371.077 C134.694,370.239 134.529,369.266 134.515,368.304 C134.529,367.341 134.701,366.369 135.131,365.531 C135.55,364.7 136.236,363.998 137.166,363.859 C138.098,363.719 139.133,364.296 139.764,365.182 C140.404,366.066 140.731,367.188 140.734,368.304 C140.718,367.192 140.522,366.06 139.982,365.044 C139.468,364.047 138.516,363.079 137.166,362.936 C136.51,362.876 135.818,363.04 135.236,363.368 C134.657,363.701 134.16,364.161 133.788,364.693 C133.037,365.758 132.685,367.04 132.682,368.304 C132.685,369.568 133.043,370.847 133.792,371.911 C134.166,372.441 134.659,372.901 135.239,373.234 M195.441,338.259 C194.785,338.198 194.094,338.36 193.512,338.691 C192.933,339.023 192.435,339.483 192.064,340.016 C191.313,341.08 190.961,342.361 190.958,343.626 C190.96,344.889 191.32,346.168 192.067,347.233 C192.441,347.763 192.935,348.225 193.515,348.556 C194.097,348.884 194.786,349.049 195.441,348.987 C196.789,348.846 197.743,347.88 198.257,346.884 C198.796,345.867 198.995,344.736 199.009,343.626 C199.006,344.739 198.681,345.862 198.041,346.75 C197.411,347.636 196.375,348.214 195.441,348.074 C194.511,347.937 193.821,347.232 193.403,346.399 C192.97,345.56 192.805,344.586 192.792,343.626 C192.804,342.664 192.976,341.691 193.406,340.853 C193.825,340.023 194.512,339.319 195.441,339.182 C196.374,339.041 197.409,339.616 198.04,340.503 C198.68,341.389 199.006,342.512 199.009,343.626 C198.995,342.515 198.797,341.383 198.258,340.367 C197.744,339.369 196.792,338.401 195.441,338.259 M185.657,298.06 C186.239,298.388 186.927,298.553 187.583,298.492 C188.932,298.35 189.883,297.385 190.397,296.389 C190.938,295.371 191.136,294.241 191.151,293.13 C191.148,294.244 190.823,295.367 190.182,296.253 C189.553,297.141 188.517,297.719 187.583,297.58 C186.652,297.441 185.961,296.736 185.544,295.903 C185.112,295.065 184.947,294.091 184.932,293.13 C184.946,292.169 185.117,291.195 185.548,290.358 C185.967,289.527 186.654,288.824 187.583,288.684 C188.516,288.545 189.551,289.122 190.18,290.007 C190.822,290.892 191.148,292.016 191.151,293.13 C191.135,292.019 190.939,290.888 190.4,289.872 C189.886,288.874 188.934,287.905 187.583,287.763 C186.927,287.703 186.236,287.866 185.654,288.195 C185.074,288.527 184.577,288.987 184.206,289.519 C183.455,290.585 183.103,291.867 183.099,293.13 C183.103,294.393 183.46,295.673 184.209,296.737 C184.583,297.266 185.077,297.728 185.657,298.06 M144.302,272.422 C143.645,272.362 142.954,272.526 142.373,272.853 C141.792,273.187 141.295,273.646 140.924,274.179 C140.174,275.244 139.821,276.526 139.817,277.789 C139.82,279.053 140.18,280.332 140.927,281.396 C141.302,281.927 141.795,282.388 142.375,282.72 C142.957,283.048 143.646,283.211 144.302,283.151 C145.649,283.009 146.602,282.044 147.116,281.049 C147.657,280.03 147.854,278.9 147.869,277.789 C147.866,278.904 147.54,280.025 146.901,280.912 C146.271,281.799 145.235,282.378 144.302,282.239 C143.371,282.1 142.68,281.395 142.263,280.562 C141.83,279.725 141.666,278.751 141.651,277.789 C141.665,276.827 141.835,275.855 142.266,275.017 C142.686,274.186 143.372,273.483 144.302,273.345 C145.234,273.204 146.269,273.782 146.898,274.667 C147.539,275.552 147.867,276.675 147.869,277.789 C147.854,276.678 147.657,275.547 147.117,274.53 C146.604,273.533 145.651,272.565 144.302,272.422 M152.552,313.878 C151.896,313.817 151.205,313.98 150.623,314.309 C150.042,314.643 149.546,315.102 149.175,315.635 C148.424,316.699 148.072,317.981 148.068,319.244 C148.072,320.509 148.43,321.789 149.179,322.852 C149.553,323.382 150.045,323.843 150.626,324.176 C151.208,324.504 151.896,324.666 152.552,324.606 C153.901,324.466 154.853,323.499 155.367,322.503 C155.908,321.487 156.105,320.355 156.12,319.244 C156.118,320.359 155.792,321.481 155.15,322.368 C154.522,323.255 153.486,323.833 152.552,323.694 C151.621,323.556 150.931,322.851 150.514,322.019 C150.081,321.182 149.916,320.206 149.901,319.244 C149.915,318.282 150.086,317.31 150.517,316.473 C150.937,315.643 151.624,314.939 152.552,314.801 C153.485,314.659 154.52,315.236 155.149,316.121 C155.791,317.008 156.118,318.13 156.12,319.244 C156.104,318.134 155.908,317.002 155.368,315.986 C154.855,314.989 153.902,314.02 152.552,313.878 M466.987,401.037 C466.412,402.918 466.409,404.721 466.908,405.912 L473.066,407.494 C473.111,406.696 473.196,405.955 473.292,405.33 C473.69,402.761 474.597,399.909 476.094,397.281 L471.327,396.056 C469.65,396.195 467.831,398.281 466.987,401.037 M579.308,423.798 L485.299,399.645 C482.217,402.956 481.609,408.453 482.09,409.806 C482.088,409.801 481.941,409.396 481.421,408.963 L480.954,409.521 L485.602,410.715 C490.478,414.799 518.862,437.841 538.964,438.116 C554.106,438.324 559.885,432.775 561.719,430.272 L578.005,434.455 L580.654,424.143 L579.308,423.798 z M213.909,329.92 C209.329,329.92 206.882,337.266 211.259,340.231 L228.936,344.772 C226.092,347.636 223.031,350.251 219.762,352.552 C215.419,355.599 210.694,358.058 205.726,359.632 C200.767,361.225 195.601,362 190.462,361.886 C185.322,361.716 180.257,360.662 175.479,358.833 C170.686,357.033 166.236,354.351 162.148,351.207 C153.945,344.891 147.399,336.457 142.29,327.277 C137.151,318.077 133.558,307.999 131.143,297.672 C130.862,296.374 130.537,295.087 130.291,293.781 L129.556,289.864 L128.96,285.922 C128.764,284.607 128.636,283.281 128.467,281.964 C127.876,276.676 127.586,271.352 127.577,266.024 C127.586,260.695 127.876,255.37 128.467,250.083 C128.636,248.765 128.764,247.438 128.96,246.124 L129.556,242.182 L130.291,238.265 C130.537,236.959 130.862,235.674 131.143,234.375 C133.558,224.048 137.151,213.97 142.29,204.769 C147.399,195.589 153.945,187.155 162.148,180.84 C166.236,177.694 170.686,175.014 175.479,173.214 C180.257,171.385 185.322,170.33 190.462,170.162 C195.601,170.047 200.767,170.821 205.726,172.415 C210.694,173.989 215.419,176.447 219.762,179.494 C220.449,179.978 221.111,180.499 221.78,181.01 L226.35,178.06 C225.231,177.082 224.083,176.134 222.897,175.224 C218.324,171.721 213.277,168.699 207.769,166.646 C202.283,164.565 196.404,163.361 190.462,163.196 C184.521,163.079 178.538,164 172.871,165.848 C167.189,167.674 161.867,170.475 157.038,173.878 C147.371,180.725 139.591,189.808 133.646,199.778 C127.717,209.783 123.417,220.641 120.594,231.822 C117.737,243.009 116.514,254.534 116.427,266.024 C116.514,277.512 117.737,289.039 120.594,300.225 C123.417,311.405 127.717,322.264 133.646,332.269 C139.591,342.239 147.371,351.321 157.038,358.168 C161.867,361.571 167.189,364.373 172.871,366.199 C178.538,368.046 184.521,368.968 190.462,368.85 C196.404,368.684 202.283,367.481 207.769,365.399 C213.277,363.348 218.324,360.326 222.897,356.822 C227.042,353.644 230.741,350.011 234.081,346.095 L261.651,353.179 C260.897,354.564 260.137,355.947 259.34,357.308 C251.332,370.919 240.926,383.214 228.23,392.331 C221.89,396.867 214.974,400.586 207.641,402.998 C203.343,404.435 198.92,405.443 194.453,406.024 L194.416,397.309 L184.158,397.352 L184.196,406.564 C176.815,406.317 169.515,404.855 162.611,402.296 C155.431,399.683 148.757,395.77 142.641,391.149 C130.375,381.862 120.571,369.48 112.959,355.984 C105.311,342.454 99.938,327.66 96.317,312.495 C95.896,310.591 95.408,308.699 95.039,306.782 L93.934,301.032 L93.032,295.242 C92.732,293.313 92.549,291.367 92.302,289.428 C91.968,286.437 91.722,283.436 91.519,280.434 L98.933,280.33 L98.771,268.663 L91.046,268.77 C91.034,267.855 91.008,266.94 91.007,266.024 C91.017,258.203 91.439,250.384 92.302,242.618 C92.549,240.681 92.732,238.734 93.032,236.804 L93.934,231.014 L95.039,225.265 C95.408,223.347 95.896,221.457 96.317,219.552 C99.938,204.386 105.311,189.592 112.959,176.063 C120.571,162.566 130.375,150.184 142.641,140.898 C148.757,136.276 155.431,132.362 162.611,129.75 C169.045,127.366 175.824,125.931 182.69,125.547 L182.735,136.264 L193.743,136.217 L193.7,125.918 C198.425,126.479 203.101,127.531 207.641,129.048 C214.974,131.461 221.89,135.18 228.23,139.716 C236.877,145.925 244.458,153.611 250.947,162.181 L254.149,160.113 C247.655,151.045 239.99,142.771 230.99,135.964 C224.446,131.027 217.247,126.813 209.439,123.978 C204.363,122.102 199.066,120.772 193.676,120.021 L193.625,108 L182.617,108.047 L182.665,119.349 C175.082,119.515 167.513,120.856 160.314,123.275 C152.354,125.911 144.911,129.932 138.143,134.781 C131.37,139.64 125.255,145.342 119.8,151.572 C114.349,157.809 109.519,164.56 105.356,171.679 C97.023,185.917 91.002,201.39 87.06,217.313 C86.605,219.313 86.084,221.299 85.683,223.31 L84.488,229.345 L83.505,235.414 C83.18,237.438 82.974,239.477 82.703,241.507 C81.75,249.647 81.262,257.833 81.205,266.024 C81.211,266.984 81.244,267.945 81.263,268.906 L71.971,269.035 L72.133,280.703 L81.788,280.568 C82.023,283.897 82.314,287.223 82.703,290.539 C82.974,292.57 83.18,294.609 83.505,296.633 L84.488,302.702 L85.683,308.736 C86.084,310.748 86.605,312.734 87.06,314.733 C91.002,330.658 97.023,346.129 105.356,360.368 C109.519,367.486 114.349,374.238 119.8,380.475 C125.255,386.704 131.37,392.406 138.143,397.265 C144.911,402.115 152.354,406.136 160.314,408.77 C168.007,411.356 176.12,412.713 184.222,412.715 L184.26,421.853 L194.519,421.81 L194.477,411.918 C199.591,411.149 204.614,409.851 209.439,408.068 C217.247,405.234 224.446,401.019 230.99,396.083 C244.111,386.16 254.396,373.118 262.349,359.044 C263.281,357.396 264.178,355.73 265.044,354.051 L274.607,356.507 C253.403,401.811 216.777,431.812 175.225,431.812 C109.793,431.812 56.561,357.44 56.561,266.024 C56.561,174.607 109.793,100.234 175.225,100.234 C209.929,100.234 241.202,121.159 262.92,154.451 L266.074,152.416 C243.646,118.055 211.226,96.429 175.225,96.429 C107.695,96.429 52.755,172.509 52.755,266.024 C52.755,359.538 107.695,435.619 175.225,435.619 C218.457,435.619 256.527,404.436 278.328,357.463 L291.745,360.91 C291.556,361.311 291.366,361.712 291.182,362.115 C286.405,372.001 280.712,381.404 274.31,390.224 C267.919,399.053 260.646,407.186 252.712,414.482 C244.788,421.79 236.064,428.136 226.79,433.291 C208.244,443.622 187.369,448.87 166.824,448.029 C156.553,447.58 146.442,445.661 136.8,442.409 C127.15,439.17 117.997,434.567 109.473,428.977 C108.377,428.336 107.374,427.524 106.323,426.804 L103.204,424.589 C101.182,423.023 99.192,421.413 97.198,419.821 C95.292,418.1 93.343,416.446 91.471,414.697 L88.713,412.01 C87.803,411.104 86.847,410.257 85.994,409.288 C78.861,401.884 72.525,393.684 66.845,385.037 C55.56,367.668 47.182,348.326 41.672,328.176 C38.896,318.097 36.937,307.792 35.555,297.409 C34.169,287.022 33.497,276.529 33.497,266.024 C33.497,255.517 34.169,245.023 35.555,234.638 C36.937,224.255 38.896,213.95 41.672,203.872 C47.182,183.72 55.56,164.378 66.845,147.01 C72.525,138.362 78.861,130.162 85.994,122.759 C86.847,121.79 87.803,120.942 88.713,120.037 L91.471,117.35 C93.343,115.6 95.292,113.946 97.198,112.225 C99.192,110.633 101.182,109.023 103.204,107.457 L106.323,105.243 C107.374,104.522 108.377,103.71 109.473,103.069 C117.997,97.48 127.15,92.877 136.8,89.638 C146.442,86.385 156.553,84.467 166.824,84.017 C187.369,83.177 208.244,88.425 226.79,98.757 C236.064,103.911 244.788,110.256 252.712,117.565 C260.646,124.861 267.919,132.994 274.31,141.823 C275.178,143.019 276.031,144.227 276.872,145.445 L280.562,143.062 C279.72,141.791 278.868,140.527 277.997,139.276 C271.618,130.11 264.351,121.575 256.32,113.86 C248.289,106.149 239.455,99.274 229.899,93.631 C220.359,87.972 210.133,83.501 199.501,80.506 C188.873,77.504 177.844,75.991 166.824,76.06 C155.805,76.178 144.83,77.877 134.304,81.043 C123.772,84.203 113.694,88.817 104.329,94.587 C94.949,100.343 86.317,107.299 78.5,115.062 C70.67,122.821 63.677,131.411 57.438,140.51 C44.978,158.746 35.82,179.18 29.752,200.439 C23.699,221.727 20.803,243.879 20.763,266.024 C20.803,288.167 23.699,310.32 29.752,331.606 C35.82,352.867 44.978,373.3 57.438,391.537 C63.677,400.636 70.67,409.225 78.5,416.984 C86.317,424.747 94.949,431.703 104.329,437.46 C113.694,443.23 123.772,447.843 134.304,451.003 C144.83,454.17 155.805,455.869 166.824,455.986 C177.844,456.056 188.873,454.543 199.501,451.54 C210.133,448.547 220.359,444.074 229.899,438.417 C239.455,432.772 248.289,425.898 256.32,418.187 C264.351,410.473 271.618,401.936 277.997,392.771 C284.771,383.044 290.631,372.684 295.583,361.896 L298.024,362.523 C293.087,373.633 287.211,384.329 280.336,394.389 C273.927,403.736 266.729,412.576 258.649,420.578 C250.58,428.585 241.652,435.78 231.92,441.748 C222.205,447.731 211.721,452.531 200.744,455.82 C189.773,459.117 178.316,460.887 166.824,461.004 C155.333,461.072 143.821,459.489 132.749,456.357 C121.669,453.233 111.038,448.577 101.148,442.704 C91.24,436.849 82.11,429.736 73.828,421.782 C65.547,413.822 58.074,405.036 51.525,395.622 C38.415,376.794 28.645,355.739 22.257,333.765 C15.919,311.76 12.851,288.886 12.735,266.024 C12.851,243.162 15.919,220.287 22.257,198.282 C28.645,176.307 38.415,155.254 51.525,136.424 C58.074,127.01 65.547,118.225 73.828,110.265 C82.11,102.311 91.24,95.198 101.148,89.342 C111.038,83.471 121.669,78.813 132.749,75.688 C143.821,72.556 155.333,70.973 166.824,71.044 C178.316,71.16 189.773,72.93 200.744,76.226 C211.721,79.514 222.205,84.316 231.92,90.299 C241.652,96.267 250.58,103.462 258.649,111.469 C266.729,119.471 273.927,128.311 280.336,137.658 C281.214,138.942 282.073,140.239 282.917,141.542 L286.6,139.163 C285.756,137.805 284.901,136.453 284.024,135.112 C277.626,125.428 270.433,116.185 262.256,107.763 C261.276,106.67 260.18,105.69 259.134,104.659 L255.959,101.597 C253.8,99.597 251.547,97.691 249.336,95.733 C247.026,93.893 244.711,92.045 242.356,90.247 L238.716,87.683 C237.487,86.847 236.313,85.929 235.03,85.172 C225.044,78.695 214.196,73.316 202.687,69.538 C191.191,65.744 179.067,63.533 166.824,63.087 C154.584,62.684 142.21,64.048 130.251,67.094 C118.292,70.139 106.734,74.809 96.004,80.861 C85.263,86.905 75.302,94.244 66.335,102.569 C57.355,110.883 49.226,120.058 42.119,129.925 C35,139.781 28.729,150.217 23.481,161.121 C22.22,163.867 20.865,166.579 19.688,169.361 C18.533,172.15 17.323,174.922 16.222,177.734 L13.083,186.229 L10.337,194.85 C6.92,206.412 4.288,218.195 2.611,230.105 C0.935,242.014 0.081,254.021 0,266.024 C0.081,278.026 0.935,290.033 2.611,301.94 C4.288,313.851 6.92,325.635 10.337,337.198 L13.083,345.818 L16.222,354.311 C17.323,357.124 18.533,359.896 19.688,362.686 C20.865,365.467 22.22,368.18 23.481,370.926 C28.729,381.829 35,392.266 42.119,402.121 C49.226,411.988 57.355,421.164 66.335,429.477 C75.302,437.803 85.263,445.142 96.004,451.185 C106.734,457.238 118.292,461.906 130.251,464.952 C142.21,467.999 154.584,469.362 166.824,468.96 C179.067,468.513 191.191,466.303 202.687,462.508 C214.196,458.73 225.044,453.35 235.03,446.874 C236.313,446.117 237.487,445.199 238.716,444.363 L242.356,441.799 C244.711,440.002 247.026,438.153 249.336,436.314 C251.547,434.355 253.8,432.45 255.959,430.45 L259.134,427.388 C260.18,426.356 261.276,425.378 262.256,424.283 C270.433,415.862 277.626,406.619 284.024,396.936 C290.973,386.306 296.885,375.093 301.82,363.499 L461.226,404.452 C461.152,402.895 461.366,401.213 461.896,399.479 C462.51,397.474 463.45,395.727 464.606,394.328 L214.145,329.98 L213.909,329.92 z M491.152,399.421 L565.553,418.536 C565.54,417.385 564.9,405.409 544.37,397.942 C526.716,391.522 500.161,397.173 491.152,399.421 M423.512,65.437 C423.507,65.434 423.108,65.269 422.44,65.355 L422.534,66.077 L426.563,63.475 C432.896,62.663 469.065,57.455 482.907,42.886 C493.336,31.908 493.185,23.897 492.59,20.851 L506.716,11.731 L500.942,2.787 L418.229,56.183 C418.568,60.693 422.194,64.872 423.512,65.437 M410.35,73.942 L415.689,70.495 C415.131,69.92 414.646,69.354 414.253,68.859 C412.636,66.822 411.159,64.222 410.244,61.338 L406.109,64.008 C405.074,65.333 405.369,68.085 406.822,70.577 C407.813,72.277 409.135,73.5 410.35,73.942 M182.817,208.157 C180.469,212.16 183.221,217.855 188.591,217.102 L231.153,189.624 C234.951,193.788 238.333,198.385 241.244,203.261 C246.792,212.601 250.875,222.854 253.557,233.461 C253.68,233.937 253.782,234.417 253.897,234.894 L256.758,233.649 C256.689,233.344 256.617,233.041 256.551,232.736 C253.995,221.835 250.187,211.151 244.666,201.285 C241.896,196.325 238.715,191.533 235.069,187.096 L257.903,172.356 C258.389,173.146 258.87,173.939 259.34,174.738 C267.338,188.392 273.17,203.333 276.988,218.753 C277.409,220.598 277.882,222.43 278.262,224.283 L280.781,223.185 C280.426,221.489 280.015,219.805 279.639,218.112 C275.895,202.443 270.332,187.118 262.349,173.002 C261.865,172.144 261.37,171.29 260.869,170.441 L269.258,165.025 C278.138,181.127 284.95,199.559 289.135,219.546 L292.685,218 C288.382,197.851 281.444,179.257 272.425,162.98 L283.545,155.802 C286.292,160.39 288.849,165.102 291.182,169.932 C292.327,172.426 293.567,174.879 294.639,177.409 C295.69,179.948 296.799,182.465 297.807,185.025 L300.682,192.767 L303.198,200.641 C304.319,204.425 305.345,208.24 306.279,212.08 L309.445,210.7 C308.575,207.001 307.623,203.321 306.571,199.669 C301.896,183.591 295.372,168.037 287.039,153.547 L289.295,152.09 C297.625,166.899 304.061,182.748 308.716,199.052 C309.731,202.616 310.648,206.204 311.49,209.81 L314.672,208.424 C313.888,204.959 313.038,201.508 312.089,198.08 C307.504,181.401 301.111,165.147 292.799,149.828 L405.419,77.125 C404.226,76.123 403.136,74.824 402.223,73.259 C401.167,71.446 400.522,69.57 400.279,67.771 L183.023,208.023 L182.817,208.157 z M457.073,11.65 C440.375,20.256 426.5,43.592 422.037,51.732 L486.574,10.069 C485.72,9.298 476.492,1.641 457.073,11.65 M420.355,170.397 C419.605,168.437 419.272,166.483 419.324,164.669 L182.242,267.933 L182.017,268.029 C179.858,271.827 182.553,277.274 186.268,277.789 L228.072,259.581 C228.316,261.681 228.445,263.832 228.445,266.024 C228.445,289.122 214.326,307.848 196.908,307.848 C179.492,307.848 165.373,289.122 165.373,266.024 C165.373,242.924 179.492,224.199 196.908,224.199 C209.284,224.199 219.988,233.657 225.152,247.415 L229.141,245.677 C227.949,242.117 226.414,238.648 224.478,235.337 C221.708,230.649 218.105,226.273 213.461,222.837 C208.843,219.416 203.056,217.048 196.908,216.649 C190.778,216.232 184.433,217.79 179.049,220.791 C173.658,223.81 169.166,228.093 165.672,232.924 C162.162,237.762 159.613,243.171 157.92,248.778 C157.096,251.588 156.449,254.445 156.049,257.332 C155.653,260.218 155.446,263.122 155.417,266.024 C155.446,268.925 155.653,271.829 156.049,274.715 C156.449,277.602 157.096,280.458 157.92,283.268 C159.613,288.877 162.162,294.284 165.672,299.123 C169.166,303.954 173.658,308.235 179.049,311.255 C184.433,314.257 190.778,315.815 196.908,315.397 C203.056,314.998 208.843,312.63 213.461,309.21 C218.105,305.774 221.708,301.397 224.478,296.709 C229.997,287.269 232.33,276.574 232.353,266.024 C232.346,263.327 232.187,260.62 231.865,257.929 L256.225,247.319 C257.064,253.513 257.479,259.77 257.528,266.024 C257.443,276.987 256.277,287.974 253.557,298.587 C250.875,309.193 246.792,319.445 241.244,328.786 C240.12,330.668 238.91,332.498 237.651,334.291 L241.91,335.385 C242.865,333.86 243.793,332.323 244.666,330.761 C250.187,320.895 253.995,310.212 256.551,299.31 C256.849,297.942 257.191,296.583 257.451,295.207 L258.227,291.079 L258.856,286.93 C259.063,285.546 259.199,284.152 259.377,282.766 C259.999,277.205 260.302,271.614 260.313,266.024 C260.302,260.433 259.999,254.841 259.377,249.282 C259.242,248.227 259.123,247.17 258.987,246.116 L280.499,236.747 C280.775,238.562 280.973,240.391 281.214,242.212 C282.141,250.111 282.616,258.063 282.673,266.024 C282.669,266.516 282.648,267.008 282.642,267.501 L274.182,267.436 L274.135,273.68 L282.469,273.745 C282.245,279.122 281.841,284.491 281.214,289.836 C280.952,291.806 280.752,293.786 280.437,295.748 L279.483,301.636 L278.323,307.484 C277.937,309.433 277.428,311.357 276.988,313.293 C274.563,323.09 271.317,332.687 267.228,341.889 L270.345,342.689 C274.25,333.38 277.299,323.724 279.639,313.933 C280.076,311.968 280.577,310.013 280.959,308.035 L282.1,302.099 L283.031,296.127 C283.339,294.136 283.53,292.131 283.786,290.133 C284.391,284.692 284.767,279.23 284.961,273.763 L291.826,273.816 L291.874,267.572 L285.098,267.519 C285.103,267.021 285.12,266.522 285.12,266.024 C285.109,257.972 284.676,249.92 283.786,241.914 C283.53,239.917 283.339,237.91 283.031,235.919 L282.991,235.661 L291.373,232.01 C293.018,242.993 293.888,254.369 293.888,266.024 C293.888,294.618 288.68,321.542 279.52,345.047 L283.198,345.992 C292.442,322.153 297.694,294.925 297.694,266.024 C297.694,253.821 296.75,241.92 294.973,230.442 L308.904,224.374 C309.428,227.225 309.897,230.087 310.302,232.958 C311.845,243.902 312.637,254.956 312.717,266.024 C312.637,277.09 311.845,288.144 310.302,299.089 C308.758,310.032 306.331,320.837 303.198,331.405 L300.682,339.279 L297.807,347.021 C297.481,347.848 297.135,348.667 296.794,349.485 L300.443,350.424 C302.747,344.502 304.797,338.478 306.571,332.378 C312.772,310.848 315.782,288.435 315.897,266.024 C315.823,251.612 314.544,237.203 311.999,223.027 L314.026,222.144 C316.607,236.62 317.876,251.327 317.901,266.024 C317.862,288.615 314.906,311.231 308.716,332.995 C306.981,339.076 304.986,345.091 302.749,351.015 L306.365,351.943 C308.512,346.023 310.425,340.024 312.089,333.966 C315.15,322.895 317.313,311.611 318.83,300.261 C320.346,288.909 321.082,277.464 321.082,266.024 C321.082,254.582 320.346,243.137 318.83,231.785 C318.338,228.111 317.771,224.444 317.137,220.788 L422.883,174.73 C421.868,173.549 421.002,172.091 420.355,170.397 M425.685,161.898 C424.45,163.038 424.295,165.802 425.326,168.495 C426.028,170.333 427.134,171.755 428.261,172.388 L434.091,169.85 C433.634,169.192 433.246,168.554 432.938,168.002 C431.671,165.731 430.635,162.926 430.198,159.933 L425.685,161.898 z M442.628,166.123 C442.625,166.121 442.259,165.893 441.584,165.87 L441.559,166.597 L445.956,164.681 C452.334,164.904 488.872,165.615 504.887,153.477 C516.958,144.33 518.103,136.4 518.009,133.298 L533.424,126.584 L529.172,116.824 L438.912,156.137 C438.516,160.642 441.418,165.352 442.628,166.123 M513.815,121.685 L443.388,152.361 C449.111,145.05 466.578,124.265 484.446,118.473 C505.229,111.737 513.097,120.787 513.815,121.685" fill="#0B0B09"/>
  </g>
</svg>